<?xml version="1.0" encoding="utf-8"?>
<!-- Generator: Adobe Illustrator 18.1.1, SVG Export Plug-In . SVG Version: 6.00 Build 0)  -->
<svg version="1.1" xmlns="http://www.w3.org/2000/svg" xmlns:xlink="http://www.w3.org/1999/xlink" x="0px" y="0px" width="185px"
	 height="40px" viewBox="0 0 185 40" enable-background="new 0 0 185 40" xml:space="preserve">
<g id="Rectangle_1_1_" enable-background="new    ">
	<g id="Rectangle_1">
		<g>
			<rect fill-rule="evenodd" clip-rule="evenodd" fill="#AEF055" width="185" height="40"/>
		</g>
	</g>
</g>
<g id="final_2_1_">
	<g id="crossyards">
		<g>
			<path fill="#3C182B" d="M51.136,21.146c0-0.942,0.151-1.83,0.455-2.664c0.303-0.834,0.742-1.561,1.315-2.181
				c0.573-0.62,1.27-1.111,2.09-1.475c0.819-0.363,1.753-0.545,2.803-0.545c0.688,0,1.319,0.062,1.893,0.186
				c0.574,0.124,1.131,0.301,1.672,0.533l-0.762,2.949c-0.344-0.132-0.721-0.248-1.131-0.347s-0.869-0.148-1.376-0.148
				c-1.082,0-1.889,0.339-2.422,1.016c-0.533,0.678-0.799,1.57-0.799,2.677c0,1.173,0.25,2.081,0.75,2.726
				c0.5,0.644,1.373,0.966,2.618,0.966c0.442,0,0.917-0.041,1.426-0.124c0.508-0.082,0.975-0.214,1.401-0.396l0.516,3.022
				c-0.426,0.182-0.958,0.339-1.598,0.471s-1.344,0.198-2.114,0.198c-1.18,0-2.197-0.178-3.049-0.532
				c-0.853-0.355-1.553-0.839-2.102-1.45c-0.549-0.61-0.951-1.334-1.205-2.168C51.262,23.024,51.136,22.12,51.136,21.146z"/>
			<path fill="#3C182B" d="M72.451,17.899c-0.328-0.083-0.713-0.169-1.155-0.26c-0.442-0.09-0.918-0.136-1.426-0.136
				c-0.23,0-0.504,0.021-0.824,0.062c-0.32,0.042-0.562,0.087-0.725,0.136v9.961h-3.664v-12.34c0.656-0.231,1.43-0.45,2.324-0.656
				c0.893-0.207,1.889-0.31,2.987-0.31c0.197,0,0.434,0.013,0.713,0.037c0.279,0.025,0.557,0.058,0.836,0.099
				c0.278,0.042,0.557,0.091,0.836,0.149c0.278,0.058,0.516,0.128,0.713,0.21L72.451,17.899z"/>
			<path fill="#3C182B" d="M87.497,21.12c0,1.024-0.148,1.962-0.443,2.813c-0.295,0.852-0.721,1.578-1.278,2.181
				c-0.557,0.604-1.226,1.07-2.003,1.4c-0.779,0.33-1.652,0.495-2.619,0.495c-0.951,0-1.815-0.165-2.594-0.495
				s-1.446-0.797-2.003-1.4c-0.558-0.603-0.992-1.329-1.303-2.181c-0.312-0.851-0.467-1.788-0.467-2.813s0.16-1.958,0.479-2.8
				c0.319-0.842,0.762-1.561,1.327-2.156s1.237-1.057,2.016-1.388c0.778-0.33,1.626-0.496,2.544-0.496
				c0.935,0,1.791,0.166,2.569,0.496c0.778,0.331,1.446,0.793,2.003,1.388s0.992,1.313,1.303,2.156
				C87.341,19.163,87.497,20.096,87.497,21.12z M83.76,21.12c0-1.14-0.225-2.036-0.676-2.688c-0.451-0.652-1.094-0.979-1.93-0.979
				s-1.483,0.326-1.942,0.979c-0.459,0.653-0.688,1.549-0.688,2.688s0.229,2.045,0.688,2.714c0.458,0.669,1.106,1.003,1.942,1.003
				s1.479-0.334,1.93-1.003C83.535,23.165,83.76,22.26,83.76,21.12z"/>
			<path fill="#3C182B" d="M94.65,25.011c0.672,0,1.146-0.065,1.426-0.198c0.279-0.132,0.418-0.388,0.418-0.769
				c0-0.297-0.18-0.558-0.541-0.78c-0.359-0.223-0.91-0.475-1.646-0.756c-0.574-0.214-1.094-0.438-1.562-0.669
				c-0.467-0.231-0.865-0.508-1.192-0.83c-0.328-0.322-0.582-0.706-0.762-1.152c-0.18-0.446-0.27-0.982-0.27-1.61
				c0-1.223,0.45-2.189,1.352-2.899c0.901-0.71,2.139-1.065,3.711-1.065c0.787,0,1.541,0.07,2.262,0.21
				c0.723,0.141,1.295,0.293,1.723,0.458l-0.641,2.875c-0.426-0.148-0.889-0.281-1.389-0.396c-0.5-0.115-1.061-0.173-1.684-0.173
				c-1.148,0-1.721,0.322-1.721,0.966c0,0.148,0.023,0.281,0.074,0.396c0.049,0.116,0.146,0.227,0.295,0.334
				c0.146,0.107,0.348,0.224,0.602,0.349s0.578,0.262,0.971,0.412c0.803,0.3,1.467,0.596,1.992,0.887
				c0.523,0.292,0.938,0.606,1.24,0.944c0.305,0.338,0.518,0.713,0.641,1.125s0.184,0.89,0.184,1.434
				c0,1.286-0.479,2.258-1.438,2.918c-0.959,0.658-2.316,0.988-4.07,0.988c-1.146,0-2.101-0.099-2.863-0.297
				s-1.291-0.363-1.585-0.496l0.614-2.998c0.623,0.248,1.262,0.442,1.918,0.582C93.363,24.94,94.012,25.011,94.65,25.011z"/>
			<path fill="#3C182B" d="M107.188,25.011c0.672,0,1.146-0.065,1.426-0.198c0.278-0.132,0.418-0.388,0.418-0.769
				c0-0.297-0.181-0.558-0.541-0.78s-0.91-0.475-1.647-0.756c-0.573-0.214-1.094-0.438-1.561-0.669
				c-0.468-0.231-0.865-0.508-1.192-0.83c-0.328-0.322-0.582-0.706-0.763-1.152c-0.181-0.446-0.271-0.982-0.271-1.61
				c0-1.223,0.451-2.189,1.353-2.899c0.901-0.71,2.139-1.065,3.712-1.065c0.787,0,1.541,0.07,2.262,0.21
				c0.722,0.141,1.295,0.293,1.722,0.458l-0.64,2.875c-0.427-0.148-0.89-0.281-1.389-0.396c-0.5-0.115-1.062-0.173-1.685-0.173
				c-1.147,0-1.721,0.322-1.721,0.966c0,0.148,0.024,0.281,0.074,0.396c0.049,0.116,0.147,0.227,0.295,0.334
				s0.348,0.224,0.602,0.349s0.578,0.262,0.972,0.412c0.803,0.3,1.467,0.596,1.991,0.887c0.524,0.292,0.938,0.606,1.241,0.944
				c0.304,0.338,0.517,0.713,0.64,1.125s0.185,0.89,0.185,1.434c0,1.286-0.479,2.258-1.438,2.918
				c-0.959,0.658-2.315,0.988-4.069,0.988c-1.146,0-2.102-0.099-2.863-0.297c-0.763-0.198-1.291-0.363-1.586-0.496l0.614-2.998
				c0.623,0.248,1.262,0.442,1.918,0.582C105.901,24.94,106.549,25.011,107.188,25.011z"/>
			<path fill="#3C182B" d="M127.52,14.628c-0.739,2.511-1.512,4.865-2.316,7.062c-0.806,2.197-1.685,4.328-2.638,6.393
				c-0.345,0.744-0.689,1.376-1.034,1.896c-0.345,0.521-0.723,0.95-1.133,1.289c-0.41,0.338-0.874,0.586-1.391,0.743
				c-0.518,0.157-1.12,0.235-1.81,0.235c-0.575,0-1.104-0.054-1.589-0.161c-0.483-0.107-0.882-0.227-1.193-0.359l0.639-2.948
				c0.378,0.132,0.714,0.223,1.009,0.272s0.606,0.074,0.935,0.074c0.656,0,1.16-0.178,1.513-0.532
				c0.353-0.355,0.652-0.848,0.898-1.475c-0.837-1.652-1.673-3.507-2.51-5.563c-0.836-2.056-1.623-4.365-2.36-6.925h3.884
				c0.165,0.644,0.358,1.342,0.581,2.094c0.222,0.752,0.456,1.511,0.703,2.28c0.247,0.768,0.498,1.516,0.753,2.242
				c0.256,0.728,0.499,1.388,0.729,1.982c0.213-0.595,0.436-1.255,0.666-1.982c0.23-0.727,0.457-1.474,0.679-2.242
				c0.222-0.769,0.437-1.528,0.642-2.28c0.206-0.751,0.391-1.45,0.556-2.094H127.52z"/>
			<path fill="#3C182B" d="M134.478,14.281c1.082,0,1.983,0.124,2.705,0.372c0.721,0.248,1.298,0.604,1.732,1.065
				c0.435,0.463,0.742,1.025,0.922,1.685c0.181,0.661,0.271,1.396,0.271,2.206v7.681c-0.524,0.116-1.254,0.252-2.188,0.409
				c-0.935,0.157-2.065,0.235-3.393,0.235c-0.836,0-1.595-0.074-2.274-0.223c-0.681-0.148-1.267-0.393-1.758-0.731
				c-0.492-0.338-0.869-0.78-1.131-1.325c-0.263-0.546-0.394-1.215-0.394-2.008c0-0.759,0.151-1.403,0.455-1.933
				c0.303-0.528,0.709-0.949,1.217-1.264c0.508-0.313,1.09-0.541,1.745-0.681c0.655-0.14,1.336-0.211,2.041-0.211
				c0.476,0,0.897,0.021,1.266,0.062c0.369,0.042,0.668,0.095,0.897,0.161v-0.347c0-0.628-0.188-1.131-0.565-1.512
				c-0.377-0.38-1.032-0.57-1.967-0.57c-0.623,0-1.237,0.045-1.844,0.136s-1.131,0.219-1.573,0.384l-0.467-2.974
				c0.213-0.066,0.479-0.136,0.799-0.211c0.319-0.074,0.668-0.14,1.045-0.198c0.377-0.058,0.774-0.107,1.192-0.148
				C133.63,14.302,134.052,14.281,134.478,14.281z M134.772,25.085c0.36,0,0.705-0.008,1.033-0.024
				c0.327-0.017,0.59-0.041,0.786-0.074v-2.801c-0.147-0.032-0.368-0.065-0.663-0.099s-0.565-0.05-0.812-0.05
				c-0.345,0-0.668,0.021-0.972,0.063c-0.303,0.041-0.569,0.119-0.799,0.235c-0.229,0.115-0.409,0.272-0.541,0.471
				c-0.131,0.198-0.196,0.445-0.196,0.743c0,0.578,0.192,0.979,0.578,1.202C133.572,24.974,134.101,25.085,134.772,25.085z"/>
			<path fill="#3C182B" d="M151.835,17.899c-0.328-0.083-0.713-0.169-1.156-0.26c-0.442-0.09-0.918-0.136-1.426-0.136
				c-0.229,0-0.504,0.021-0.823,0.062c-0.319,0.042-0.562,0.087-0.726,0.136v9.961h-3.663v-12.34c0.655-0.231,1.43-0.45,2.323-0.656
				s1.889-0.31,2.987-0.31c0.196,0,0.435,0.013,0.713,0.037c0.278,0.025,0.557,0.058,0.836,0.099
				c0.278,0.042,0.557,0.091,0.836,0.149c0.278,0.058,0.517,0.128,0.713,0.21L151.835,17.899z"/>
			<path fill="#3C182B" d="M166.191,27.241c-0.328,0.099-0.704,0.194-1.131,0.284c-0.426,0.092-0.872,0.17-1.34,0.235
				c-0.467,0.066-0.942,0.12-1.426,0.161s-0.946,0.063-1.389,0.063c-1.065,0-2.017-0.157-2.852-0.471
				c-0.836-0.313-1.541-0.764-2.115-1.351c-0.573-0.586-1.012-1.297-1.314-2.131c-0.304-0.834-0.455-1.772-0.455-2.813
				c0-1.058,0.131-2.011,0.394-2.862c0.262-0.851,0.639-1.573,1.131-2.168c0.491-0.595,1.094-1.049,1.807-1.363
				c0.713-0.313,1.528-0.471,2.446-0.471c0.508,0,0.963,0.05,1.364,0.149s0.808,0.24,1.217,0.421V9.028l3.663-0.595V27.241z
				 M157.906,21.046c0,1.14,0.254,2.057,0.763,2.751c0.508,0.693,1.262,1.04,2.262,1.04c0.327,0,0.631-0.012,0.909-0.037
				c0.279-0.024,0.508-0.053,0.688-0.087v-6.715c-0.229-0.148-0.528-0.272-0.897-0.372c-0.368-0.099-0.741-0.148-1.118-0.148
				C158.775,17.478,157.906,18.667,157.906,21.046z"/>
			<path fill="#3C182B" d="M173.961,25.011c0.672,0,1.146-0.065,1.426-0.198c0.278-0.132,0.418-0.388,0.418-0.769
				c0-0.297-0.181-0.558-0.541-0.78s-0.91-0.475-1.647-0.756c-0.573-0.214-1.094-0.438-1.561-0.669
				c-0.468-0.231-0.865-0.508-1.192-0.83c-0.328-0.322-0.582-0.706-0.763-1.152c-0.181-0.446-0.271-0.982-0.271-1.61
				c0-1.223,0.451-2.189,1.353-2.899c0.901-0.71,2.139-1.065,3.712-1.065c0.787,0,1.541,0.07,2.262,0.21
				c0.722,0.141,1.295,0.293,1.722,0.458l-0.64,2.875c-0.427-0.148-0.89-0.281-1.389-0.396c-0.5-0.115-1.062-0.173-1.685-0.173
				c-1.147,0-1.721,0.322-1.721,0.966c0,0.148,0.024,0.281,0.074,0.396c0.049,0.116,0.147,0.227,0.295,0.334
				s0.348,0.224,0.602,0.349s0.578,0.262,0.972,0.412c0.803,0.3,1.467,0.596,1.991,0.887c0.524,0.292,0.938,0.606,1.241,0.944
				c0.304,0.338,0.517,0.713,0.64,1.125s0.185,0.89,0.185,1.434c0,1.286-0.479,2.258-1.438,2.918
				c-0.959,0.658-2.315,0.988-4.069,0.988c-1.146,0-2.102-0.099-2.863-0.297c-0.763-0.198-1.291-0.363-1.586-0.496l0.614-2.998
				c0.623,0.248,1.262,0.442,1.918,0.582C172.674,24.94,173.321,25.011,173.961,25.011z"/>
		</g>
	</g>
	<g id="Group_1_copy_1_">
		<g id="Rectangle_4_copy">
			<g>
				<polygon fill-rule="evenodd" clip-rule="evenodd" fill="#907C86" points="24.469,18.68 5.003,26.841 23.959,35.001 
					43.425,26.841 				"/>
			</g>
		</g>
		<g id="Shape_1">
			<g>
				<polygon fill-rule="evenodd" clip-rule="evenodd" fill="#FFFFFF" points="36.22,22.04 21.334,7.16 18.213,8.12 16.532,10.52 
					31.898,25.88 34.059,26.36 36.7,24.44 				"/>
			</g>
		</g>
		<g id="pencil">
			<g>
				<path fill="#3C182B" d="M36.182,21.904L22.294,8.36h-1.441l14.546,14.327l0.348,1.479l-1.565,1.653l-1.478-0.348l-0.696-0.609
					c0,0-0.285-0.827,0-1.566c0.285-0.739,1.091-1.256,1.091-1.256L19.893,8.84c0,0-1.715,1.243-1.681,2.64
					c-0.006,0.771,0.48,1.2,0.48,1.2l12.965,13.2l6.002,1.68L36.182,21.904z M22.094,7.895c-0.143-0.155-1.689-2.251-3.392-2.175
					C17,5.796,15.621,6.881,15.572,8.678c-0.049,1.797,2.084,3.27,2.261,3.393C16.979,9.505,20.338,7.149,22.094,7.895z"/>
			</g>
		</g>
		<g id="showel">
			<g>
				<path fill-rule="evenodd" clip-rule="evenodd" fill="#3C182B" d="M29.737,5c-0.548-0.064-1.272,0.581-1.2,1.2
					c0.071,0.619,2.161,2.4,2.161,2.4l-9.364,8.64c0,0-3.057-2.014-3.601-1.92c-0.544,0.094-6.573,6.221-6.483,11.04
					c-0.004,1.496,1.26,3.33,3.121,3.36c5.492,0.218,11.292-4.725,11.524-6.24s-1.921-3.6-1.921-3.6l8.883-9.36
					c0,0,1.422,2.13,2.161,2.16c0.739,0.03,1.264-0.559,1.201-1.2S30.285,5.064,29.737,5z"/>
			</g>
		</g>
		<g id="Shape_2">
			<g>
				<path fill-rule="evenodd" clip-rule="evenodd" fill="#FFFFFF" d="M22.294,17.24c0,0-2.917,2.592-3.361,3.36
					s-0.24,1.68-0.24,1.68s0.439-1.045,0.72-1.44c0.281-0.395,3.601-2.88,3.601-2.88L22.294,17.24z"/>
			</g>
		</g>
	</g>
</g>
</svg>
