<?xml version="1.0" encoding="utf-8"?>
<!-- Generator: Adobe Illustrator 18.1.1, SVG Export Plug-In . SVG Version: 6.00 Build 0)  -->
<svg version="1.1" id="Rounded_Rectangle_1_1_" xmlns="http://www.w3.org/2000/svg" xmlns:xlink="http://www.w3.org/1999/xlink"
	 x="0px" y="0px" width="4.8px" height="6.72px" viewBox="0 0 4.8 6.72" enable-background="new 0 0 4.8 6.72" xml:space="preserve"
	>
<g id="Rounded_Rectangle_1">
	<g>
		<path fill="#D40707" d="M4.577,0H0.223C0.1,0,0,0.1,0,0.223v6.275C0,6.62,0.1,6.72,0.223,6.72h4.354C4.7,6.72,4.8,6.62,4.8,6.498
			V0.223C4.8,0.1,4.7,0,4.577,0z M3.929,5.83H0.893V5.34h3.036V5.83z M3.929,4.784H0.893V4.228h3.036V4.784z M3.929,3.672H0.893
			V3.115h3.036V3.672z M3.929,2.559H0.893V2.003h3.036V2.559z M3.929,1.446H0.893V0.89h3.036V1.446z"/>
	</g>
</g>
</svg>
