<?xml version="1.0" encoding="utf-8"?>
<!-- Generator: Adobe Illustrator 16.0.0, SVG Export Plug-In . SVG Version: 6.00 Build 0)  -->
<!DOCTYPE svg PUBLIC "-//W3C//DTD SVG 1.1 Basic//EN" "http://www.w3.org/Graphics/SVG/1.1/DTD/svg11-basic.dtd">
<svg version="1.1" baseProfile="basic" id="Layer_1"
	 xmlns="http://www.w3.org/2000/svg" xmlns:xlink="http://www.w3.org/1999/xlink" x="0px" y="0px" width="19px" height="118.667px"
	 viewBox="0 0 19 118.667" xml:space="preserve">
<g>
	<defs>
		<rect id="SVGID_1_" width="19" height="80"/>
	</defs>
	<clipPath id="SVGID_2_">
		<use xlink:href="#SVGID_1_"  overflow="visible"/>
	</clipPath>
	<g clip-path="url(#SVGID_2_)">
		<g>
			<defs>
				<rect id="SVGID_3_" x="0.52" y="4.337" width="18.249" height="10.963"/>
			</defs>
			<clipPath id="SVGID_4_">
				<use xlink:href="#SVGID_3_"  overflow="visible"/>
			</clipPath>
			<path clip-path="url(#SVGID_4_)" fill="#D40707" d="M0.52,15.299h18.249V4.336H0.52V15.299z M17.808,14.172l-5.851-5.391
				l5.851-3.226V14.172z M1.48,5.29l5.9,3.445l-5.9,5.437V5.29z M8.244,9.239l1.4,0.817l1.43-0.789l5.511,5.079H2.703L8.244,9.239z"
				/>
		</g>
	</g>
</g>
<g>
	<defs>
		<rect id="SVGID_5_" width="19" height="80"/>
	</defs>
	<clipPath id="SVGID_6_">
		<use xlink:href="#SVGID_5_"  overflow="visible"/>
	</clipPath>
	<g clip-path="url(#SVGID_6_)">
		<g>
			<defs>
				<rect id="SVGID_7_" x="3.996" y="19.999" width="11.006" height="20.002"/>
			</defs>
			<clipPath id="SVGID_8_">
				<use xlink:href="#SVGID_7_"  overflow="visible"/>
			</clipPath>
			<path clip-path="url(#SVGID_8_)" fill="#D40707" d="M14.981,21.63c-0.003-0.902-0.76-1.632-1.692-1.631l-7.605,0.006
				c-0.933,0.001-1.689,0.733-1.688,1.634L4.018,38.37c0.001,0.901,0.758,1.632,1.692,1.631l7.604-0.007
				c0.934-0.001,1.688-0.732,1.688-1.634L14.981,21.63z M9.3,39.181c-0.584,0.001-1.057-0.455-1.058-1.019
				c-0.001-0.563,0.472-1.02,1.055-1.021c0.583,0,1.057,0.456,1.059,1.019C10.355,38.724,9.883,39.181,9.3,39.181 M5.705,36.328
				l-0.019-14.69l7.605-0.007l0.019,14.69L5.705,36.328z"/>
		</g>
	</g>
</g>
<g>
	<defs>
		<rect id="SVGID_9_" width="19" height="80"/>
	</defs>
	<clipPath id="SVGID_10_">
		<use xlink:href="#SVGID_9_"  overflow="visible"/>
	</clipPath>
	<path clip-path="url(#SVGID_10_)" fill="#D40707" d="M18.997,75.138c0,2.604-2.109,4.713-4.713,4.713H4.858
		c-2.603,0-4.713-2.109-4.713-4.713v-9.426c0-2.604,2.11-4.713,4.713-4.713h9.426c2.604,0,4.713,2.109,4.713,4.713V75.138z"/>
	<rect x="3.681" y="68.461" clip-path="url(#SVGID_10_)" fill="#FFFFFF" width="2.749" height="7.855"/>
	<path clip-path="url(#SVGID_10_)" fill="#FFFFFF" d="M5.055,67.283c0.758,0,1.375-0.616,1.375-1.375s-0.617-1.374-1.375-1.374
		c-0.76,0-1.375,0.615-1.375,1.374S4.295,67.283,5.055,67.283"/>
	<path clip-path="url(#SVGID_10_)" fill="#FFFFFF" d="M15.463,71.999c0-2.12-0.457-3.538-2.928-3.538
		c-1.188,0-1.984,0.441-2.311,1.061H10.19v-1.061H8.001v7.855h2.289v-3.895c0-1.025,0.193-2.02,1.464-2.02
		c1.251,0,1.353,1.174,1.353,2.086v3.828h2.356V71.999z"/>
</g>
<g>
	<defs>
		<rect id="SVGID_11_" width="19" height="80"/>
	</defs>
	<clipPath id="SVGID_12_">
		<use xlink:href="#SVGID_11_"  overflow="visible"/>
	</clipPath>
	<path clip-path="url(#SVGID_12_)" fill="#D40707" d="M7.911,41.742c-0.031-0.017-0.062-0.032-0.093-0.048
		c-0.032,0.006-0.064,0.012-0.095,0.02L7.911,41.742z"/>
	<path clip-path="url(#SVGID_12_)" fill="#D40707" d="M0.71,48.851c-0.006,0.032-0.01,0.064-0.016,0.098
		c0.017,0.029,0.032,0.061,0.049,0.09L0.71,48.851z"/>
	<path clip-path="url(#SVGID_12_)" fill="#D40707" d="M18.312,52.217c0.007-0.033,0.012-0.067,0.018-0.101
		c-0.018-0.029-0.032-0.061-0.049-0.091L18.312,52.217z"/>
	<path clip-path="url(#SVGID_12_)" fill="#D40707" d="M10.996,59.263c0.031,0.018,0.062,0.033,0.091,0.05
		c0.034-0.006,0.067-0.01,0.101-0.017L10.996,59.263z"/>
	<path clip-path="url(#SVGID_12_)" fill="#D40707" d="M18.328,52.116c-0.006,0.033-0.01,0.066-0.017,0.1l-0.032-0.19
		C18.298,52.055,18.312,52.086,18.328,52.116c0.099-0.533,0.149-1.079,0.149-1.624c0-1.209-0.237-2.383-0.704-3.487
		c-0.452-1.066-1.097-2.024-1.921-2.848c-0.822-0.823-1.78-1.468-2.847-1.92c-1.104-0.468-2.278-0.704-3.487-0.704
		c-0.57,0-1.141,0.054-1.696,0.16c-0.002,0.001-0.003,0.001-0.005,0.001c0.032,0.017,0.063,0.03,0.094,0.048l-0.189-0.029
		c0.032-0.006,0.064-0.013,0.095-0.019c-0.762-0.405-1.619-0.622-2.487-0.622c-1.417,0-2.748,0.552-3.75,1.554
		s-1.554,2.334-1.554,3.75c0,0.902,0.232,1.789,0.668,2.572c0.005-0.033,0.009-0.065,0.015-0.099l0.033,0.188
		c-0.017-0.029-0.032-0.061-0.048-0.09c-0.089,0.507-0.135,1.025-0.135,1.544c0,1.21,0.236,2.383,0.704,3.488
		c0.451,1.066,1.097,2.024,1.919,2.847c0.824,0.823,1.781,1.47,2.849,1.92c1.104,0.468,2.278,0.705,3.487,0.705
		c0.527,0,1.054-0.048,1.569-0.141c-0.03-0.017-0.062-0.031-0.092-0.049l0.191,0.033c-0.033,0.007-0.066,0.01-0.1,0.016
		C11.882,59.761,12.779,60,13.696,60c1.417,0,2.748-0.551,3.75-1.553c1.002-1.001,1.555-2.334,1.555-3.75
		C19.001,53.792,18.768,52.902,18.328,52.116 M9.555,55.979c-3.183,0-4.607-1.564-4.607-2.737c0-0.602,0.444-1.023,1.056-1.023
		c1.362,0,1.01,1.956,3.551,1.956c1.301,0,2.019-0.706,2.019-1.429c0-0.436-0.214-0.917-1.07-1.128L7.671,50.91
		c-2.28-0.572-2.694-1.804-2.694-2.963c0-2.406,2.265-3.31,4.392-3.31c1.96,0,4.271,1.083,4.271,2.526
		c0,0.619-0.536,0.978-1.148,0.978c-1.162,0-0.947-1.608-3.29-1.608c-1.162,0-1.805,0.526-1.805,1.28
		c0,0.751,0.917,0.99,1.714,1.173l2.096,0.465c2.296,0.511,2.878,1.851,2.878,3.113C14.084,54.519,12.584,55.979,9.555,55.979"/>
</g>
<path fill-rule="evenodd" clip-rule="evenodd" fill="#D40707" d="M9.476,80.597c-5.204,0-9.417,4.202-9.445,9.39
	c-0.029,5.246,4.214,9.496,9.443,9.499c5.204,0.003,9.443-4.227,9.445-9.429C18.921,84.827,14.696,80.597,9.476,80.597z
	 M3.152,84.321c0.598-0.655,1.279-1.209,2.047-1.655c0.754-0.439,1.558-0.753,2.41-0.943c0.008-0.002,0.016-0.002,0.034-0.004
	c-0.174,0.181-0.337,0.356-0.494,0.538c-0.817,0.946-1.469,1.997-1.959,3.146c-0.016,0.038-0.029,0.039-0.064,0.024
	c-0.688-0.282-1.342-0.626-1.964-1.031C3.121,84.369,3.121,84.357,3.152,84.321z M0.965,89.526c0.03-0.465,0.094-0.928,0.199-1.384
	c0.25-1.093,0.698-2.097,1.342-3.013c0.027-0.038,0.042-0.038,0.08-0.014c0.698,0.467,1.437,0.859,2.218,1.172
	c0.038,0.016,0.042,0.031,0.03,0.067c-0.201,0.61-0.35,1.231-0.45,1.866c-0.069,0.436-0.113,0.875-0.133,1.316
	c-0.001,0.039-0.017,0.043-0.049,0.043C3.668,89.58,3.134,89.58,2.6,89.58c-0.528,0-1.058-0.001-1.586,0.001
	C0.969,89.581,0.963,89.569,0.965,89.526z M2.566,94.979c-0.035,0.023-0.04,0-0.053-0.019c-0.428-0.605-0.772-1.256-1.031-1.952
	c-0.212-0.57-0.362-1.158-0.446-1.764c-0.032-0.229-0.055-0.461-0.072-0.691c-0.003-0.042,0.006-0.052,0.047-0.052
	c0.53,0.001,1.061,0.001,1.591,0.001c0.527,0,1.055,0.001,1.581-0.002c0.048,0,0.063,0.011,0.065,0.061
	c0.01,0.339,0.038,0.678,0.081,1.015c0.065,0.517,0.163,1.025,0.293,1.526c0.057,0.218,0.119,0.434,0.189,0.648
	c0.009,0.024,0.008,0.036-0.021,0.048C4.008,94.115,3.267,94.508,2.566,94.979z M6.625,98.076c-1.313-0.47-2.443-1.217-3.395-2.234
	c-0.029-0.032-0.057-0.066-0.089-0.097c-0.032-0.029-0.008-0.039,0.013-0.054c0.362-0.234,0.733-0.453,1.119-0.646
	c0.269-0.135,0.542-0.261,0.818-0.377c0.037-0.016,0.053-0.013,0.069,0.027c0.37,0.89,0.842,1.723,1.414,2.5
	c0.285,0.387,0.593,0.755,0.923,1.105c0.011,0.012,0.021,0.022,0.037,0.041C7.22,98.27,6.919,98.181,6.625,98.076z M9.014,98.415
	c0,0.017,0,0.035,0,0.063C8.759,98.26,8.526,98.04,8.301,97.81c-0.973-0.999-1.731-2.142-2.276-3.426
	c-0.019-0.045-0.004-0.053,0.032-0.063c0.586-0.182,1.184-0.314,1.792-0.402c0.369-0.052,0.74-0.084,1.111-0.104
	c0.046-0.003,0.055,0.012,0.055,0.054C9.014,95.384,9.014,96.898,9.014,98.415z M8.958,92.895c-1.094,0.043-2.164,0.23-3.21,0.559
	c-0.06,0.018-0.061,0.018-0.079-0.043c-0.178-0.566-0.312-1.144-0.396-1.733c-0.054-0.373-0.091-0.748-0.106-1.125
	c-0.002-0.04,0.006-0.052,0.048-0.051c0.625,0.001,1.251,0.001,1.877,0.001c0.624,0,1.247,0,1.87-0.002
	c0.045,0,0.053,0.013,0.053,0.055c-0.001,0.761-0.002,1.521,0,2.282C9.015,92.882,9.003,92.894,8.958,92.895z M8.966,89.58
	c-0.625,0-1.251,0-1.876,0c-0.622,0-1.244-0.001-1.867,0.001c-0.043,0-0.055-0.01-0.053-0.055c0.053-0.977,0.228-1.933,0.53-2.862
	c0.009-0.031,0.017-0.045,0.056-0.033c0.523,0.164,1.056,0.295,1.597,0.388c0.371,0.063,0.742,0.11,1.116,0.14
	c0.167,0.014,0.334,0.025,0.502,0.03c0.033,0,0.044,0.01,0.044,0.044c-0.001,0.77-0.002,1.538,0,2.307
	C9.015,89.582,8.995,89.58,8.966,89.58z M8.961,86.269c-0.393-0.021-0.786-0.055-1.177-0.115c-0.573-0.085-1.138-0.212-1.692-0.381
	c-0.038-0.011-0.05-0.021-0.032-0.063c0.675-1.549,1.649-2.88,2.926-3.988c0.006-0.006,0.013-0.01,0.028-0.023
	c0,0.025,0,0.04,0,0.057c0,1.487,0,2.976,0.001,4.464C9.015,86.262,9.004,86.271,8.961,86.269z M16.379,85.105
	c0.037-0.025,0.046-0.001,0.06,0.02c0.433,0.612,0.778,1.269,1.037,1.972c0.192,0.521,0.331,1.058,0.417,1.607
	c0.044,0.276,0.072,0.552,0.093,0.831c0.003,0.042-0.014,0.046-0.047,0.046c-0.533-0.001-1.064-0.001-1.597-0.001
	c-0.527,0-1.055-0.001-1.581,0.002c-0.053,0-0.062-0.017-0.064-0.064c-0.018-0.39-0.054-0.777-0.11-1.164
	c-0.102-0.684-0.257-1.355-0.477-2.011c-0.008-0.026-0.005-0.037,0.023-0.048C14.923,85.977,15.671,85.581,16.379,85.105z
	 M15.835,84.364c-0.307,0.2-0.612,0.385-0.929,0.555c-0.355,0.189-0.722,0.359-1.095,0.515c-0.03,0.012-0.039,0.005-0.052-0.022
	c-0.58-1.369-1.39-2.588-2.421-3.658c-0.01-0.01-0.018-0.019-0.022-0.032C13.101,82.123,14.603,83.008,15.835,84.364z M9.943,81.702
	c0.091,0.081,0.182,0.16,0.27,0.241c1.155,1.064,2.046,2.317,2.671,3.759c0.024,0.055,0.024,0.055-0.032,0.071
	c-0.538,0.166-1.087,0.288-1.645,0.375c-0.404,0.063-0.809,0.1-1.216,0.119c-0.042,0.003-0.058-0.004-0.058-0.052
	c0.002-1.487,0.002-2.976,0.002-4.463C9.936,81.737,9.931,81.722,9.943,81.702z M9.934,87.241c0-0.04,0.011-0.053,0.051-0.054
	c1.092-0.041,2.16-0.229,3.204-0.555c0.037-0.012,0.049-0.006,0.062,0.034c0.191,0.597,0.336,1.208,0.427,1.83
	c0.049,0.343,0.081,0.688,0.103,1.033c0.002,0.04-0.005,0.051-0.048,0.051c-0.625-0.002-1.252-0.001-1.877-0.001
	c-0.622,0-1.244-0.001-1.866,0.001c-0.042,0-0.055-0.009-0.055-0.053C9.936,88.767,9.936,88.003,9.934,87.241z M9.982,90.501
	c0.627,0.001,1.251,0.001,1.877,0.001c0.624,0,1.248,0,1.871-0.001c0.043,0,0.054,0.01,0.052,0.053
	c-0.036,0.833-0.163,1.651-0.385,2.455c-0.038,0.14-0.082,0.277-0.122,0.417c-0.008,0.035-0.021,0.045-0.058,0.032
	c-0.462-0.146-0.931-0.265-1.407-0.355c-0.368-0.07-0.739-0.123-1.114-0.159c-0.239-0.024-0.479-0.043-0.717-0.05
	c-0.038,0-0.045-0.015-0.045-0.049c0.001-0.765,0.001-1.53-0.001-2.297C9.934,90.509,9.946,90.501,9.982,90.501z M9.986,98.434
	c-0.015,0.013-0.027,0.023-0.051,0.043c0-0.026,0-0.045,0-0.062c0-1.517,0-3.031-0.002-4.548c0-0.042,0.01-0.057,0.055-0.054
	c0.475,0.024,0.948,0.072,1.416,0.153c0.505,0.086,1.003,0.203,1.491,0.354c0.035,0.012,0.047,0.02,0.029,0.058
	C12.257,95.955,11.277,97.308,9.986,98.434z M11.424,98.338c0.136-0.149,0.267-0.296,0.397-0.446
	c0.824-0.962,1.479-2.027,1.968-3.195c0.013-0.027,0.017-0.051,0.06-0.031c0.683,0.28,1.331,0.624,1.949,1.029
	c0.011,0.006,0.021,0.015,0.035,0.023C14.63,97.044,13.163,97.92,11.424,98.338z M17.983,90.558c-0.024,0.403-0.077,0.805-0.159,1.2
	c-0.24,1.167-0.704,2.235-1.392,3.207c-0.018,0.024-0.028,0.027-0.054,0.011c-0.697-0.467-1.435-0.859-2.211-1.173
	c-0.036-0.016-0.038-0.03-0.029-0.063c0.204-0.614,0.345-1.242,0.442-1.881c0.065-0.432,0.106-0.866,0.12-1.303
	c0.002-0.045,0.018-0.055,0.06-0.055c0.528,0.001,1.057,0.001,1.586,0.001c0.528,0,1.058,0,1.586-0.001
	C17.979,90.5,17.986,90.512,17.983,90.558z"/>
<g>
	<path fill-rule="evenodd" clip-rule="evenodd" fill="#D40707" d="M11.234,113.935c0.408-0.079,0.789-0.137,1.162-0.231
		c1.123-0.281,2.068-0.831,2.586-1.912c0.543-1.139,0.664-2.339,0.352-3.567c-0.123-0.478-0.365-0.895-0.686-1.266
		c-0.086-0.101-0.105-0.184-0.066-0.315c0.223-0.734,0.16-1.457-0.107-2.166c-0.029-0.069-0.148-0.145-0.227-0.147
		c-0.449-0.01-0.865,0.136-1.262,0.329c-0.35,0.169-0.676,0.378-1.018,0.557c-0.074,0.041-0.182,0.063-0.264,0.043
		c-1.473-0.359-2.948-0.36-4.422-0.001c-0.092,0.021-0.218-0.014-0.302-0.064c-0.611-0.374-1.232-0.725-1.953-0.846
		c-0.021-0.004-0.042-0.01-0.065-0.014c-0.376-0.054-0.414-0.03-0.522,0.326c-0.206,0.679-0.24,1.359-0.027,2.044
		c0.018,0.057,0.001,0.15-0.037,0.195c-0.844,0.971-1.008,2.115-0.828,3.332c0.063,0.431,0.167,0.866,0.323,1.272
		c0.477,1.229,1.453,1.881,2.684,2.2c0.38,0.098,0.77,0.156,1.18,0.239c-0.308,0.333-0.474,0.723-0.553,1.155
		c-0.01,0.048-0.081,0.103-0.134,0.122c-1.004,0.385-1.978,0.222-2.595-0.802c-0.292-0.483-0.693-0.839-1.263-0.953
		c-0.141-0.027-0.298-0.024-0.438,0.003c-0.199,0.039-0.229,0.151-0.096,0.301c0.063,0.071,0.137,0.139,0.219,0.188
		c0.509,0.303,0.833,0.761,1.051,1.295c0.347,0.851,1.017,1.24,1.887,1.307c0.433,0.034,0.873-0.024,1.333-0.041
		c0,0.571,0.016,1.174-0.006,1.775c-0.011,0.306-0.336,0.447-0.691,0.33c-0.797-0.263-1.549-0.623-2.233-1.105
		c-2.831-1.999-4.262-4.737-4.107-8.202c0.192-4.31,3.348-7.848,7.602-8.665c4.876-0.938,9.628,2.04,10.89,6.828
		c1.232,4.672-1.445,9.614-6.035,11.137c-0.467,0.155-0.734-0.04-0.734-0.535c0-0.782,0.006-1.563,0.008-2.347
		C11.842,115.077,11.723,114.461,11.234,113.935z"/>
	<path fill-rule="evenodd" clip-rule="evenodd" fill="#D40707" d="M6.18,115.52c0.084,0.074,0.139,0.124,0.194,0.174
		c-0.071,0.049-0.138,0.126-0.215,0.138c-0.052,0.008-0.115-0.082-0.174-0.127C6.042,115.648,6.099,115.596,6.18,115.52z"/>
	<path fill-rule="evenodd" clip-rule="evenodd" fill="#D40707" d="M5.006,115.232c-0.103,0.071-0.168,0.14-0.189,0.127
		c-0.081-0.046-0.151-0.113-0.212-0.185c-0.008-0.009,0.08-0.128,0.093-0.123C4.788,115.091,4.87,115.148,5.006,115.232z"/>
	<path fill-rule="evenodd" clip-rule="evenodd" fill="#D40707" d="M5.415,115.398c0.077,0.088,0.134,0.152,0.191,0.218
		c-0.063,0.036-0.14,0.11-0.187,0.095c-0.075-0.023-0.128-0.108-0.192-0.169C5.28,115.504,5.332,115.463,5.415,115.398z"/>
	<path fill-rule="evenodd" clip-rule="evenodd" fill="#D40707" d="M6.916,115.42c0.078,0.084,0.125,0.135,0.175,0.188
		c-0.076,0.049-0.145,0.119-0.228,0.139c-0.043,0.009-0.105-0.072-0.161-0.112C6.764,115.572,6.825,115.512,6.916,115.42z"/>
	<path fill-rule="evenodd" clip-rule="evenodd" fill="#D40707" d="M4.329,114.902c-0.08-0.123-0.14-0.191-0.167-0.27
		c-0.009-0.023,0.068-0.078,0.106-0.118c0.056,0.067,0.122,0.13,0.164,0.205C4.443,114.742,4.387,114.803,4.329,114.902z"/>
	<path fill-rule="evenodd" clip-rule="evenodd" fill="#D40707" d="M3.88,113.974c0.076,0.103,0.128,0.166,0.167,0.236
		c0.006,0.01-0.084,0.088-0.092,0.082c-0.059-0.044-0.117-0.094-0.157-0.156C3.786,114.118,3.833,114.061,3.88,113.974z"/>
</g>
</svg>
