<?xml version="1.0" encoding="utf-8"?>
<!-- Generator: Adobe Illustrator 18.1.1, SVG Export Plug-In . SVG Version: 6.00 Build 0)  -->
<svg version="1.1" xmlns="http://www.w3.org/2000/svg" xmlns:xlink="http://www.w3.org/1999/xlink" x="0px" y="0px"
	 viewBox="0 0 19 80" enable-background="new 0 0 19 80" xml:space="preserve">
<g id="email_copy_1_" enable-background="new    ">
	<g id="email_copy">
		<g>
			<path fill="#d40707" d="M0.52,4.337V15.3h18.249V4.337H0.52z M17.808,14.172l-5.85-5.392l5.85-3.226V14.172z M1.48,5.29
				l5.9,3.445l-5.9,5.438V5.29z M8.244,9.239l1.4,0.817l1.43-0.789l5.51,5.079H2.703L8.244,9.239z"/>
		</g>
	</g>
</g>
<g id="phone_copy_1_" enable-background="new    ">
	<g id="phone_copy">
		<g>
			<path fill="#FFFFFF" d="M14.981,21.63c-0.001-0.901-0.759-1.632-1.692-1.631l-7.605,0.007c-0.933,0.001-1.689,0.732-1.688,1.634
				l0.022,16.73c0.001,0.902,0.759,1.632,1.692,1.631l7.605-0.007c0.933-0.001,1.689-0.732,1.688-1.634L14.981,21.63z M9.3,39.182
				c-0.583,0-1.057-0.456-1.057-1.019c-0.001-0.563,0.471-1.02,1.055-1.021c0.583-0.001,1.057,0.456,1.058,1.019
				C10.355,38.724,9.883,39.181,9.3,39.182z M5.705,36.328l-0.019-14.69l7.605-0.007l0.019,14.69L5.705,36.328z"/>
		</g>
	</g>
</g>
<g id="linkedin">
	<g>
		<path fill="#d40707" d="M18.997,75.138c0,2.603-2.11,4.713-4.713,4.713H4.859c-2.603,0-4.713-2.109-4.713-4.713v-9.426
			c0-2.603,2.109-4.713,4.713-4.713h9.426c2.603,0,4.713,2.11,4.713,4.713V75.138z"/>
		<g>
			<rect x="3.681" y="68.461" fill="#FFFFFF" width="2.749" height="7.855"/>
			<circle fill="#FFFFFF" cx="5.055" cy="65.908" r="1.375"/>
			<path fill="#FFFFFF" d="M15.463,71.999c0-2.12-0.457-3.538-2.928-3.538c-1.187,0-1.984,0.441-2.31,1.06h-0.034v-1.06h-2.19v7.855
				h2.289v-3.893c0-1.027,0.194-2.021,1.464-2.021c1.251,0,1.352,1.174,1.352,2.087v3.827h2.356V71.999z"/>
		</g>
	</g>
</g>
<g id="skype">
	<g>
		<g>
			<path fill="#FFFFFF" d="M7.911,41.742c-0.03-0.017-0.062-0.032-0.093-0.048c-0.032,0.006-0.063,0.013-0.095,0.019L7.911,41.742z"
				/>
			<path fill="#FFFFFF" d="M0.71,48.85c-0.006,0.032-0.01,0.065-0.016,0.098c0.017,0.03,0.031,0.061,0.048,0.09L0.71,48.85z"/>
			<path fill="#FFFFFF" d="M18.312,52.216c0.006-0.033,0.011-0.067,0.017-0.1c-0.017-0.03-0.031-0.061-0.049-0.091L18.312,52.216z"
				/>
			<path fill="#FFFFFF" d="M10.996,59.263c0.031,0.018,0.061,0.033,0.091,0.05c0.034-0.006,0.067-0.01,0.1-0.016L10.996,59.263z"/>
			<path fill="#FFFFFF" d="M18.329,52.116c-0.006,0.033-0.01,0.067-0.017,0.1l-0.032-0.191
				C18.297,52.055,18.312,52.086,18.329,52.116c0.098-0.533,0.149-1.079,0.149-1.624c0-1.21-0.237-2.383-0.705-3.487
				c-0.451-1.067-1.097-2.025-1.92-2.848c-0.822-0.823-1.781-1.468-2.847-1.92c-1.104-0.467-2.278-0.704-3.487-0.704
				c-0.57,0-1.141,0.054-1.697,0.16c-0.001,0-0.003,0-0.004,0.001c0.031,0.016,0.063,0.031,0.093,0.048l-0.188-0.029
				c0.032-0.006,0.063-0.013,0.095-0.019c-0.762-0.405-1.619-0.622-2.487-0.622c-1.417,0-2.749,0.552-3.75,1.554
				c-1.001,1.002-1.553,2.334-1.553,3.75c0,0.902,0.232,1.788,0.667,2.571c0.006-0.033,0.01-0.065,0.016-0.098l0.033,0.188
				c-0.017-0.029-0.032-0.06-0.048-0.09c-0.088,0.507-0.135,1.026-0.135,1.544c0,1.21,0.237,2.383,0.705,3.487
				c0.451,1.067,1.097,2.025,1.919,2.848c0.823,0.822,1.781,1.469,2.848,1.919c1.104,0.468,2.278,0.705,3.487,0.705
				c0.526,0,1.054-0.048,1.569-0.139c-0.03-0.017-0.061-0.032-0.091-0.05l0.191,0.033c-0.033,0.006-0.066,0.01-0.1,0.016
				C11.881,59.761,12.78,60,13.697,60c1.417,0,2.748-0.551,3.75-1.553C18.449,57.446,19,56.113,19,54.697
				C19,53.792,18.767,52.902,18.329,52.116z M9.554,55.979c-3.183,0-4.607-1.565-4.607-2.738c0-0.602,0.444-1.023,1.056-1.023
				c1.362,0,1.009,1.956,3.551,1.956c1.301,0,2.019-0.706,2.019-1.429c0-0.435-0.215-0.917-1.071-1.128L7.672,50.91
				c-2.28-0.572-2.694-1.804-2.694-2.963c0-2.406,2.265-3.309,4.392-3.309c1.959,0,4.269,1.083,4.269,2.526
				c0,0.618-0.536,0.978-1.147,0.978c-1.163,0-0.948-1.609-3.29-1.609c-1.162,0-1.806,0.526-1.806,1.279
				c0,0.751,0.918,0.991,1.714,1.173l2.096,0.465c2.295,0.511,2.877,1.851,2.877,3.114C14.083,54.519,12.583,55.979,9.554,55.979z"
				/>
		</g>
	</g>
</g>
</svg>
