<?xml version="1.0" encoding="utf-8"?>
<!-- Generator: Adobe Illustrator 18.1.1, SVG Export Plug-In . SVG Version: 6.00 Build 0)  -->
<svg version="1.1" id="logo_1_" xmlns="http://www.w3.org/2000/svg" xmlns:xlink="http://www.w3.org/1999/xlink" x="0px" y="0px"
	 width="265px" height="100px" viewBox="0 0 265 100" enable-background="new 0 0 265 100" xml:space="preserve">
<g id="panna_x0D_draws">
	<g>
		<path fill="#211E1C" d="M123.874,18.117h9.85c1.765,0,3.382,0.163,4.852,0.487c1.471,0.325,2.72,0.853,3.749,1.583
			s1.829,1.698,2.401,2.899c0.571,1.203,0.857,2.68,0.857,4.435c0,1.689-0.286,3.151-0.857,4.386
			c-0.572,1.235-1.381,2.258-2.426,3.07c-1.046,0.813-2.296,1.421-3.749,1.827c-1.454,0.407-3.063,0.609-4.827,0.609h-5.783v12.67
			h-4.067V18.117z M133.234,34.101c2.809,0,4.892-0.527,6.248-1.583c1.354-1.056,2.033-2.721,2.033-4.995
			c0-2.306-0.686-3.906-2.058-4.8c-1.373-0.893-3.448-1.34-6.224-1.34h-5.293v12.719H133.234z"/>
		<path fill="#211E1C" d="M166.803,40.338h-11.712l-3.088,9.747h-4.165l10.879-31.968h4.606l10.88,31.968h-4.361L166.803,40.338z
			 M165.773,37.073l-1.519-4.873c-0.588-1.786-1.145-3.565-1.666-5.336c-0.523-1.771-1.047-3.582-1.568-5.434h-0.196
			c-0.49,1.852-0.997,3.663-1.52,5.434c-0.522,1.771-1.078,3.55-1.666,5.336l-1.52,4.873H165.773z"/>
		<path fill="#211E1C" d="M178.76,18.117h4.215l11.614,20.077l3.479,6.627h0.196c-0.098-1.624-0.204-3.305-0.318-5.043
			c-0.115-1.737-0.172-3.452-0.172-5.141v-16.52h3.872v31.968h-4.215l-11.663-20.126l-3.479-6.579h-0.196
			c0.13,1.625,0.253,3.273,0.367,4.946c0.114,1.673,0.172,3.355,0.172,5.043v16.715h-3.872V18.117z"/>
		<path fill="#211E1C" d="M210.466,18.117h4.215l11.614,20.077l3.479,6.627h0.196c-0.098-1.624-0.204-3.305-0.318-5.043
			c-0.115-1.737-0.172-3.452-0.172-5.141v-16.52h3.872v31.968h-4.215l-11.663-20.126l-3.479-6.579h-0.196
			c0.13,1.625,0.253,3.273,0.367,4.946c0.114,1.673,0.172,3.355,0.172,5.043v16.715h-3.872V18.117z"/>
		<path fill="#211E1C" d="M256.875,40.338h-11.712l-3.088,9.747h-4.165l10.879-31.968h4.606l10.88,31.968h-4.361L256.875,40.338z
			 M255.846,37.073l-1.519-4.873c-0.588-1.786-1.145-3.565-1.666-5.336c-0.523-1.771-1.047-3.582-1.568-5.434h-0.196
			c-0.49,1.852-0.997,3.663-1.52,5.434c-0.522,1.771-1.078,3.55-1.666,5.336l-1.52,4.873H255.846z"/>
		<path fill="#211E1C" d="M121.374,62.787h8.037c4.966,0,8.739,1.364,11.321,4.094c2.58,2.729,3.871,6.645,3.871,11.744
			c0,2.534-0.328,4.8-0.98,6.798c-0.654,1.998-1.617,3.688-2.891,5.068c-1.275,1.381-2.844,2.437-4.705,3.167
			c-1.863,0.731-4.003,1.097-6.42,1.097h-8.233V62.787z M129.117,91.441c3.756,0,6.574-1.121,8.453-3.362
			c1.879-2.242,2.818-5.393,2.818-9.454c0-4.061-0.939-7.163-2.818-9.308s-4.697-3.217-8.453-3.217h-3.676v25.341H129.117z"/>
		<path fill="#211E1C" d="M169.154,94.755l-7.743-13.498h-5.831v13.498h-4.068V62.787h10.047c1.633,0,3.144,0.155,4.533,0.463
			c1.388,0.31,2.58,0.821,3.577,1.535c0.996,0.715,1.772,1.641,2.328,2.778c0.555,1.137,0.833,2.533,0.833,4.19
			c0,2.502-0.654,4.5-1.96,5.994c-1.308,1.494-3.056,2.518-5.244,3.069l8.135,13.938H169.154z M155.58,77.942h5.391
			c2.515,0,4.442-0.512,5.782-1.535c1.34-1.022,2.01-2.574,2.01-4.653c0-2.111-0.67-3.59-2.01-4.435s-3.268-1.267-5.782-1.267
			h-5.391V77.942z"/>
		<path fill="#211E1C" d="M194.687,85.009h-11.712l-3.088,9.746h-4.165l10.879-31.968h4.606l10.88,31.968h-4.361L194.687,85.009z
			 M193.657,81.744l-1.519-4.873c-0.588-1.787-1.145-3.565-1.666-5.337c-0.523-1.77-1.047-3.581-1.568-5.434h-0.196
			c-0.49,1.853-0.997,3.664-1.52,5.434c-0.522,1.771-1.078,3.55-1.666,5.337l-1.52,4.873H193.657z"/>
		<path fill="#211E1C" d="M203.36,62.787h4.215l3.382,17.397c0.294,1.754,0.604,3.477,0.931,5.165
			c0.326,1.689,0.637,3.411,0.931,5.166h0.196c0.359-1.755,0.735-3.484,1.127-5.19c0.393-1.705,0.768-3.419,1.128-5.141
			l4.459-17.397h3.725l4.46,17.397c0.392,1.689,0.784,3.395,1.176,5.116c0.393,1.723,0.784,3.46,1.176,5.215h0.196
			c0.294-1.755,0.588-3.484,0.882-5.19c0.295-1.705,0.604-3.419,0.932-5.141l3.382-17.397h3.92l-6.665,31.968h-4.9l-4.852-19.249
			c-0.294-1.234-0.563-2.444-0.809-3.63s-0.498-2.396-0.76-3.631h-0.196c-0.262,1.235-0.531,2.445-0.809,3.631
			s-0.547,2.396-0.809,3.63l-4.753,19.249h-4.852L203.36,62.787z"/>
		<path fill="#211E1C" d="M245.261,87.786c1.143,1.202,2.49,2.169,4.043,2.899c1.551,0.731,3.161,1.097,4.827,1.097
			c2.123,0,3.773-0.479,4.949-1.438c1.177-0.958,1.765-2.217,1.765-3.776c0-0.812-0.14-1.503-0.417-2.071s-0.653-1.056-1.127-1.462
			s-1.037-0.771-1.69-1.097c-0.654-0.324-1.356-0.665-2.107-1.023l-4.606-1.998c-0.752-0.324-1.52-0.714-2.304-1.169
			s-1.487-1.007-2.107-1.657c-0.621-0.649-1.127-1.421-1.519-2.314c-0.393-0.894-0.588-1.925-0.588-3.095
			c0-1.201,0.252-2.322,0.759-3.362c0.507-1.039,1.209-1.94,2.107-2.704s1.961-1.356,3.186-1.779
			c1.226-0.422,2.573-0.634,4.043-0.634c1.928,0,3.708,0.366,5.342,1.097c1.634,0.731,3.021,1.682,4.166,2.851l-2.206,2.632
			c-0.979-0.941-2.066-1.682-3.259-2.217c-1.192-0.536-2.54-0.805-4.043-0.805c-1.797,0-3.243,0.414-4.337,1.243
			c-1.095,0.828-1.642,1.974-1.642,3.436c0,0.779,0.154,1.438,0.466,1.974c0.31,0.536,0.727,1.007,1.249,1.413
			s1.095,0.764,1.716,1.072c0.62,0.309,1.257,0.593,1.911,0.853l4.558,1.949c0.914,0.39,1.78,0.837,2.597,1.34
			c0.816,0.504,1.52,1.089,2.107,1.755s1.054,1.445,1.396,2.339c0.344,0.894,0.515,1.925,0.515,3.094
			c0,1.268-0.253,2.454-0.759,3.558c-0.507,1.104-1.234,2.071-2.182,2.899c-0.947,0.829-2.091,1.479-3.43,1.949
			c-1.341,0.471-2.859,0.707-4.558,0.707c-2.255,0-4.346-0.423-6.273-1.268c-1.928-0.844-3.594-1.998-4.998-3.46L245.261,87.786z"/>
	</g>
</g>
<g id="Shape_1">
	<g>
		<path fill-rule="evenodd" clip-rule="evenodd" fill="#211E1C" d="M108.499,46.944c-3.914-9.26-21.998-14.494-29.421-15.702
			c-7.423-1.208-26.722-1.879-36.034,8.186C33.731,49.494,21.99,68.685,37.24,86.131c11.731,15.167,25.642,15.03,33.335,12.749
			c9.166-2.77,16.6-18.654,11.067-26.572c-5.533-7.918-21.729-8.857-21.729-7.918c0,0.94,12.011,4.831,13.361,11.407
			c1.82,8.866-16.563,19.299-29.556,0.134c-7.693-16.641,8.503-26.035,13.361-28.45c4.859-2.415,36.139-5.811,43.052,3.489
			c6.883,9.26-3.509,31.672-1.754,32.074C100.131,83.447,112.412,56.204,108.499,46.944z"/>
	</g>
</g>
<g id="Shape_2">
	<g>
		<path fill-rule="evenodd" clip-rule="evenodd" fill="#D40707" d="M26.974,55.797c0.006,0.02,0.008,0.039,0.013,0.059
			C27.086,55.703,27.085,55.668,26.974,55.797z M13.581,68.964c3.285-1.978,15.371-5.989,13.407-13.108
			C26.16,57.142,17.822,67.31,0.001,68.079c5.745,16.131,20.257,16.974,30.237,16.289C15.357,77.613,5.622,73.209,13.581,68.964z"/>
	</g>
</g>
<g id="Shape_2_copy">
	<g>
		<path fill-rule="evenodd" clip-rule="evenodd" fill="#211E1C" d="M18.182,3.842C5.27,25.216,17.77,42.22,27.795,52.741
			c-6.158-22.897-10.202-37.86,1.974-32.899c5.281,1.838,21.018,11.63,27.246,2.836C54.793,22.945,35.57,23.051,18.182,3.842z
			 M57.069,22.609c-0.017,0.025-0.037,0.045-0.054,0.07C57.279,22.647,57.317,22.613,57.069,22.609z"/>
	</g>
</g>
<g id="Shape_2_copy_2">
	<g>
		<path fill-rule="evenodd" clip-rule="evenodd" fill="#211E1C" d="M73.562-0.002C60.935,3.938,59.88,15.005,60.131,22.651
			c5.635-11.184,9.31-18.5,12.369-12.3c1.437,2.565,4.2,11.913,9.757,10.61C81.286,20.292,73.66,13.638,73.562-0.002z
			 M82.303,20.952c-0.016,0.004-0.03,0.005-0.046,0.009C82.372,21.04,82.399,21.04,82.303,20.952z"/>
	</g>
</g>
</svg>
