<?xml version="1.0" encoding="utf-8"?>
<!-- Generator: Adobe Illustrator 18.1.1, SVG Export Plug-In . SVG Version: 6.00 Build 0)  -->
<svg version="1.1" id="lovetree_logo_1_" xmlns="http://www.w3.org/2000/svg" xmlns:xlink="http://www.w3.org/1999/xlink" x="0px"
	 y="0px" width="96px" height="50px" viewBox="0 0 96 50" enable-background="new 0 0 96 50" xml:space="preserve">
<g id="clock_1_">
	<g id="Shape_218">
		<g>
			<path fill-rule="evenodd" clip-rule="evenodd" fill="#FFFFFF" d="M17.689,38.909c-0.728-4.24-5.136-6.547-9.086-5.28
				c-3.95,1.267-6.017,4.896-4.758,8.429c1.259,3.533,5.365,6.214,8.962,4.783C16.403,45.41,18.417,43.15,17.689,38.909z"/>
		</g>
	</g>
	<g id="Shape_212">
		<g>
			<path fill="#525252" d="M18.02,38.121c-0.881-3.329-4.19-6.342-8.506-5.074c-4.316,1.268-7.425,3.629-6.333,8.475
				c1.092,4.846,5.195,7.228,9.875,5.609C17.735,45.513,18.901,41.451,18.02,38.121z M12.64,46.179
				c-3.905,1.412-7.241-0.834-8.381-4.577c-1.14-3.743,0.369-6.333,4.427-7.64c4.058-1.307,7.286,0.465,8.339,4.411
				C18.078,42.319,16.544,44.767,12.64,46.179z"/>
		</g>
	</g>
	<g id="Shape_213">
		<g>
			
				<rect x="8.903" y="34.533" transform="matrix(0.9695 -0.2451 0.2451 0.9695 -8.4081 3.368)" fill-rule="evenodd" clip-rule="evenodd" fill="#525252" width="0.855" height="1.879"/>
		</g>
	</g>
	<g id="Shape_214">
		<g>
			<polygon fill-rule="evenodd" clip-rule="evenodd" fill="#525252" points="16.527,38.498 15.035,38.876 15.244,39.704 
				16.694,39.161 			"/>
		</g>
	</g>
	<g id="Shape_215">
		<g>
			<polygon fill-rule="evenodd" clip-rule="evenodd" fill="#525252" points="12.057,44.564 11.436,44.897 11.727,46.057 
				12.556,45.847 			"/>
		</g>
	</g>
	<g id="Shape_216">
		<g>
			<polygon fill-rule="evenodd" clip-rule="evenodd" fill="#525252" points="5.627,41.432 4.549,41.352 4.675,42.554 5.959,42.052 
							"/>
		</g>
	</g>
	<g id="Shape_217">
		<g>
			<polygon fill-rule="evenodd" clip-rule="evenodd" fill="#271C03" points="10.269,40.258 9.073,45.318 11.181,40.379 			"/>
		</g>
	</g>
	<g id="Shape_217_copy">
		<g>
			<polygon fill-rule="evenodd" clip-rule="evenodd" fill="#271C03" points="5.291,37.284 10.843,40.644 11.157,39.578 			"/>
		</g>
	</g>
</g>
<g id="tree_1_">
	<g id="Shape_205">
		<g>
			<path fill-rule="evenodd" clip-rule="evenodd" fill="#B9830F" d="M28.88,46.451c0,0-0.019-0.785-0.882-0.664
				c-0.967,1.045-1.676,0.177-1.764,0.221c-0.088,0.044-0.714-0.995-1.764-0.664c-1.05,0.332-0.441-1.769-0.441-1.769
				s-1.034-0.91-1.323-2.654s0.662-1.327,0.662-1.327l1.103-1.77l0.882-1.769l-2.867-1.99l-6.616-2.433l-0.441,1.548
				c0,0,0.827,4.097,1.323,4.644c0.496,0.547-1.089,1.435-1.323,2.654c-0.234,1.219-0.152,1.446,0.221,1.769
				c0.372,0.324,0.441,1.769,0.441,1.769s-0.957,0.473-1.103,1.769c-0.146,1.297-1.577,1.266-2.205,0.442
				c-0.629-0.824-1.668,0.523-2.426,0.443c-0.758-0.08-0.882,1.106-0.882,1.106L13.002,48h1.985l1.985-0.221l1.985-0.442L20.279,48
				c0,0,4.331-0.556,5.072,0c1.094-0.556,2.508,0.218,3.087-0.221s0.199-0.357,1.323,0.442C30.156,47.46,28.88,46.451,28.88,46.451z
				"/>
		</g>
	</g>
	<g id="Shape_206">
		<g>
			<path fill-rule="evenodd" clip-rule="evenodd" fill="#886418" d="M16.31,39.595c-0.132-0.044-0.662,0.885-0.662,0.885v1.106
				l0.662,0.664l0.662-0.885v-1.327C16.972,40.037,16.442,39.639,16.31,39.595z"/>
		</g>
	</g>
	<g id="Shape_207">
		<g>
			<path fill-rule="evenodd" clip-rule="evenodd" fill="#886418" d="M17.633,42.028l0.004-0.034l-0.031,0.05L17.633,42.028z
				 M17.854,40.037l-0.217,1.957l0.658-1.072L17.854,40.037z M16.089,42.913l0.221,0.885l-0.882,1.327l-0.221,0.885l-0.882,0.885
				h0.882l1.103-0.664l0.221-2.433l1.076-1.753l-1.076,0.647L16.089,42.913z"/>
		</g>
	</g>
	<g id="Shape_208">
		<g>
			<polygon fill-rule="evenodd" clip-rule="evenodd" fill="#886418" points="26.013,47.115 24.469,46.451 22.705,46.451 
				20.72,46.672 20.279,45.567 19.618,46.23 19.177,45.345 19.177,44.682 18.956,43.797 20.059,42.913 19.618,41.586 19.177,40.259 
				19.177,42.249 18.295,43.797 18.515,46.009 19.177,46.894 20.059,47.557 21.161,47.557 22.705,47.115 24.69,47.336 
				25.572,47.557 27.557,47.778 			"/>
		</g>
	</g>
	<g id="Shape_209">
		<g>
			<polygon fill-rule="evenodd" clip-rule="evenodd" fill="#886418" points="18.295,46.451 17.854,44.903 17.854,46.451 
				16.751,47.557 15.207,47.557 12.782,47.336 9.474,47.778 12.12,48 14.325,48 16.31,48 18.515,47.115 			"/>
		</g>
	</g>
	<g id="Shape_210">
		<g>
			<polygon fill-rule="evenodd" clip-rule="evenodd" fill="#886418" points="23.808,37.605 22.485,38.711 22.264,37.826 
				21.823,38.932 21.382,40.922 21.823,42.249 21.382,43.797 21.382,44.682 22.044,44.018 22.264,42.47 22.044,40.922 
				22.485,39.595 23.367,39.374 24.028,38.047 24.249,36.941 			"/>
		</g>
	</g>
	<g id="Shape_211">
		<g>
			<path fill-rule="evenodd" clip-rule="evenodd" fill="#886418" d="M16.751,31.855l-0.882,1.327l0.221,1.769l0.221,1.327
				l0.441,1.106l0.441,0.221c0,0,0.397,1.946,0.221,2.212c-0.177,0.265,0.882-1.106,0.882-1.106v-1.327l0.662-0.221l1.103-0.442
				l0.221,1.327l1.764-1.106L16.751,31.855z"/>
		</g>
	</g>
	<g id="Group_1_1_">
		<g id="Shape_198">
			<g>
				<path fill-rule="evenodd" clip-rule="evenodd" fill="#629031" d="M40.795,27.977c-0.396-2.883-3-1.684-3-1.684
					s2.901-3.746-1-3.704c2.047-2.394-0.667-3.368-0.667-3.368s0.88-3.173-2-2.02c3.526-4.514,0-6.062,0-6.062
					s1.094-3.225-1.667-3.03c0.057-3.583-2-2.021-2-2.021s-1.266-1.047-2,2.694c0.036-3.057-3.667-3.031-3.667-3.031
					s-1.354-5.724-4-4.714c-0.156-2.678-4,0.673-4,0.673s-3.938,0.01-3,2.694c-0.682,0.889-1.313,1.552-0.667,3.031
					c-2.677,0.273-2.156,2.225-1.667,3.367c-0.755-0.421-1.875,1.479-0.333,3.031c-3.662-1.336-3,2.021-3,2.021
					S5.554,16.68,7.46,19.559c-3.365-2.715-3,1.01-3,1.01s-2.771,0.363-1.333,2.357c-1.682,1.705,1,3.031,1,3.031
					s-2.38-0.705-1.667,1.347c-1.792-0.821-1.667,1.01-1.667,1.01s-3.24,4.483,3.333,3.704c-1.016,3.362,3,3.368,3,3.368
					s3.38,3.52,5.334-1.01c1.641,1.926,3.667-1.347,3.667-1.347s-0.073,2.746,2,1.684c-0.511,3.204,3,1.684,3,1.684
					s2.313,3.199,4.667-0.337c1.924,5.219,7.556,1.122,8,1.01c0.444-0.112,7.118,2.266,6-2.357
					C43.164,34.445,44.426,30.929,40.795,27.977z"/>
			</g>
		</g>
		<g id="Shape_202">
			<g>
				<path fill-rule="evenodd" clip-rule="evenodd" fill="#799432" d="M27.998,8.411c0,0-0.174-2.04-1.544-1.769
					c0.364-0.625-2.426-0.885-2.426-0.885s-0.551-3.674-1.985-4.202c-1.026-0.378-1.594,0.46-1.838,0.97
					c-0.075,0.208-0.147,0.357-0.147,0.357s0.051-0.155,0.147-0.357c0.181-0.502,0.381-1.387-0.368-1.633
					c-1.058-0.348-3.308,1.548-3.308,1.548l-1.323,0.885c0,0,0.866,0.011,0.882,0.664c0.874-1.413,1.764-0.885,1.764-0.885
					s1.114-0.896,0.882,0.221c1.32-0.144,0.882,1.327,0.882,1.327s0.753-1.634,1.544-1.106c0.943-0.813,0.882,0.885,0.882,0.885
					s1.141,1.086,0,1.99c1.783-0.752,1.323,0.221,1.323,0.221s0.987,0.636-0.221,1.769c2.754-1.661,2.646-0.442,2.646-0.442
					s1.571-0.141,1.764,1.99C28.976,8.953,27.998,8.411,27.998,8.411z"/>
			</g>
		</g>
		<g id="Shape_203">
			<g>
				<path fill-rule="evenodd" clip-rule="evenodd" fill="#799432" d="M16.751,23.229c0,0,1.138-1.598-0.221-2.211
					c-0.08-0.995-2.646-1.548-2.646-1.548s-1.428-0.475-2.205,0.442c-0.182-0.672-1.323,0.442-1.323,0.442s0.276-0.766-0.441-0.885
					c-0.717-0.119-1.323,0.442-1.323,0.442l0.882,0.885l1.544,0.442l1.323-0.664c0,0,0.176,0.752,0,1.106
					c-0.177,0.354,0.284,0.265,0.882-0.442c0.598-0.708,2.646,0.885,2.646,0.885s0.848,0.762-0.205,2.172
					c0.562-0.614,1.452,0.496,1.529,0.261C17.279,24.29,16.751,23.229,16.751,23.229z"/>
			</g>
		</g>
		<g id="Shape_204">
			<g>
				<path fill-rule="evenodd" clip-rule="evenodd" fill="#799432" d="M35.937,22.565c0,0-1.174-1.603-2.205-0.442
					c-0.521-0.843-1.103,0-1.103,0s-1.524-0.528-2.867,1.99c0.146-1.214-1.103-1.327-1.103-1.327
					c0.269-0.931-0.148-1.062-0.882-0.885c-0.764,0.185-0.882,0.664-0.882,0.664s-1.16,0.279-0.882-0.221
					c0.278-0.5-0.441-0.664-0.441-0.664s-1.257-0.846-2.646,1.106c-0.251,0.517,2.224-0.434,2.646,0.663
					c0.364-0.713,1.544-0.442,1.544-0.442l0.221,0.885c0,0,1.407-0.183,1.385,1.338c0.808-1.012,2.104,0.08,2.364-0.232
					c0.243-0.292,0.518-1.941,1.764-1.548c0.943-1.003,1.764,0,1.764,0s0.962-0.705,2.646-0.442
					C38.944,23.27,35.937,22.565,35.937,22.565z"/>
			</g>
		</g>
		<g id="Shape_199">
			<g>
				<path fill-rule="evenodd" clip-rule="evenodd" fill="#4B7222" d="M35.716,28.979c-0.293,2.077-1.985,1.548-1.985,1.548
					s-1.296-0.045-0.441-1.769c-1.051,1.158-1.544,0.442-1.544,0.442s-0.489,1.932-1.323,0.442c-3.132,2.253-4.44-0.447-4.44-0.447
					c-0.154,1.115-1.267,1.045-1.293,1.11c-0.104,0.262-0.045,2.34-1.103,1.106c-1.657,0.18-1.323-1.769-1.323-1.769
					s-0.837-0.228,0.221-1.327c-1.713,1.531-2.426,0.442-2.426,0.442s-1.402-1.106,0-2.433c-0.693-0.729,0.882-1.548,0.882-1.548
					s-0.562-0.432,0.662-1.548c-1.671,1.078-2.426-1.327-2.426-1.327v1.327c0,0,0.182,2.384-1.103,1.769
					c-0.148,1.576-2.15,0.829-1.985,0.885c0.165,0.055,0.941,0.522,0.441,1.327c0.507,0.442,1.306-0.733,0.882,1.327
					c-0.424,2.06-1.544,0.995-1.764,1.106c-0.221,0.111-1.413,2.73-2.646,0.885c-1.413-0.394-0.441-2.875-0.441-2.875
					s-1.468,1.966-2.426,1.327c-0.868,1.794-2.205,0.664-2.205,0.664s-1.53-0.536-0.662-1.991c-0.91,0,0.882-1.327,0.882-1.327
					s-2.422,0.473-1.985-0.885c-1.209-0.318,0.165-1.382,0-1.548C6,23.726,4.781,24.822,4.843,23.229
					c0.383,0.864,1.985-0.885,1.985-0.885s-1.285-1.234-1.323-2.211c-0.868,0.307,0,1.548,0,1.548s-1.837,0.156-1.764,0.885
					c0.072,0.729-0.569,0.584-0.662,1.548c-0.093,0.964,1.323,1.99,1.323,1.99s-0.799-0.197-1.323,0.442
					c-0.524,0.639,0.389,2.239,0.221,1.99c-0.169-0.249-0.985-0.885-1.764-0.885c-0.779,0-1.102,2.433-1.102,2.433
					s-0.248,0.829,0.221,1.327c0.469,0.497,3.087-0.221,3.087-0.221l0.882,1.548c0,0-0.114,1.147,1.103,1.548
					c1.216,0.401,1.985-0.442,1.985-0.442l1.103,1.99c0,0,0.92,0.954,1.764,0.442c0.844-0.512,1.764-2.875,1.764-2.875
					s0.324,1.286,1.544,0.885c1.22-0.401,2.646-2.212,2.646-2.212s0.076,1.545,0.662,1.991c0.586,0.446,1.764,0,1.764,0
					s-0.686,0.767-0.441,1.548c0.245,0.781,0.348,0.722,1.103,0.664c0.755-0.059,1.544-0.664,1.544-0.664l0.882,1.106
					c0,0,0.751,0.622,1.764,0.442c1.013-0.18,1.671-1.141,2.205-1.991c0.003,1.545,2.205,2.433,2.205,2.433
					s-0.079,0.923,1.764,0.664c1.843-0.259,2.646-1.548,2.646-1.548s3.969,0.283,5.293,0.221c1.323-0.062,1.323-2.875,1.323-2.875
					s1.781,0.256,2.426-0.442c0.644-0.698,0.882-1.991,0.882-1.991S36.881,31.778,35.716,28.979z"/>
			</g>
		</g>
		<g id="Shape_200">
			<g>
				<path fill-rule="evenodd" clip-rule="evenodd" fill="#4B7222" d="M21.603,16.815c-0.726,0.341-0.441-2.211-0.441-2.211
					s-0.574,2.815-1.544,1.99c-0.74,1.18-1.985-0.664-1.985-0.664s-1.76-1.124-0.221-2.654c-1.282-0.037,0.073-2.506-0.221-2.211
					c-0.294,0.295-0.992,1.94-1.544,1.327c-0.551-0.613,0-0.369,0-0.885s-0.221-0.885-0.221-0.885s-1.585,3.138-1.985,1.327
					c-0.983,0.373-0.662-1.769-0.662-1.769s-0.818-0.931,0.882-1.77c-0.813,0.055,0.221-1.769,0.221-1.769s-2.228,1.525-2.426,2.212
					c-0.198,0.687,0.662,2.212,0.662,2.212s-0.832,0.253-1.103,0.885c-0.271,0.631-0.266,1.378,0.662,1.769
					c-0.441,1.248-2.205,0.664-2.205,0.664s-1.19,0.428,0.221,0.885c-0.597,1.488,1.544,1.548,1.544,1.548s-1.314,1.88,0.221,2.212
					c1.535,0.332,2.426-1.106,2.426-1.106s-0.014,2.083,3.087,1.769c-0.032,1.654,1.985,1.769,1.985,1.769s2.09-0.544,2.205-2.654
					c2.233,1.11,2.205-1.548,2.205-1.548l0.441-1.99C23.808,15.267,22.361,18.11,21.603,16.815z"/>
			</g>
		</g>
		<g id="Shape_201">
			<g>
				<path fill-rule="evenodd" clip-rule="evenodd" fill="#4B7222" d="M33.29,17.921c0.873-1.05,2.591-3.474,2.205-4.866
					c-0.386-1.392-2.205-1.548-2.205-1.548l0.441-2.212c0,0-0.951,2.645-1.544,2.875c2.224,1.189,1.764,2.654,1.764,2.654
					s0.032,1.525-1.544,1.327c0.492,1.221,0,2.433,0,2.433l-0.882-0.221c0,0,0.257,1.221-1.103,0.442
					c0.147,1.986-1.139,1.511-1.323,0.885c-0.795,0.958-1.764-0.442-1.764-0.442s-0.202,2.682,1.544,2.212
					c-0.266,1.258,1.544,1.106,1.544,1.106s2.339-0.967,1.764-1.99c2.237,1.203,2.867-1.99,2.867-1.99S34.324,17.594,33.29,17.921z"
					/>
			</g>
		</g>
	</g>
</g>
<g id="heart_1_">
	<g id="Shape_17">
		<g>
			<path fill-rule="evenodd" clip-rule="evenodd" fill="#DF2C09" d="M76.321,28.247c-0.276-0.576-0.379-0.569-0.931-0.666
				c-0.551-0.097-1.055,0.635-1.055,0.635s-0.302-0.573-1.234-0.678c-0.932-0.104-1.06,0.626-0.938,1.147
				c0.122,0.521,1.347,1.725,2.556,2.634C76.022,30.091,76.597,28.824,76.321,28.247z"/>
		</g>
	</g>
	<g id="Shape_18">
		<g>
			<path fill-rule="evenodd" clip-rule="evenodd" fill="#A32B14" d="M73.543,29.761c-0.45-0.438-1.151-1.02-1.151-1.02
				s0.535,0.766,0.959,1.165c0.423,0.4,1.342,1.165,1.342,1.165S73.993,30.199,73.543,29.761z"/>
		</g>
	</g>
</g>
<g id="Lovetree">
	<g>
		<path fill="#FFFFFF" d="M36.595,48.012l-6.019,0.108v-0.474h0.486c0.135,0,0.265-0.034,0.392-0.102
			c0.125-0.068,0.236-0.153,0.331-0.258c0.094-0.104,0.168-0.221,0.223-0.352c0.054-0.131,0.081-0.264,0.081-0.399V30.104
			c0-0.279-0.102-0.525-0.304-0.737c-0.203-0.212-0.443-0.318-0.722-0.318h-0.486v-0.474h4.386v0.474H34.49
			c-0.144,0-0.279,0.034-0.405,0.102c-0.126,0.068-0.236,0.156-0.331,0.265s-0.169,0.229-0.223,0.365
			c-0.054,0.135-0.081,0.271-0.081,0.406v16.553c0,0.234,0.049,0.436,0.148,0.603s0.279,0.25,0.54,0.25
			c0.18,0,0.355-0.004,0.526-0.014c0.17-0.009,0.346-0.022,0.526-0.04c0.359-0.027,0.605-0.129,0.735-0.305s0.196-0.436,0.196-0.778
			v-3.262h0.472V48.012z"/>
		<path fill="#FFFFFF" d="M42.326,38.835c0,0.379-0.002,0.81-0.007,1.293c-0.004,0.482-0.032,0.979-0.081,1.488
			s-0.13,1.011-0.243,1.503c-0.113,0.491-0.284,0.929-0.513,1.313c-0.229,0.384-0.521,0.692-0.877,0.927
			c-0.355,0.235-0.799,0.353-1.33,0.353c-0.477,0-0.879-0.106-1.208-0.318c-0.329-0.212-0.601-0.487-0.816-0.825
			c-0.216-0.339-0.387-0.727-0.513-1.164s-0.22-0.882-0.283-1.334c-0.063-0.45-0.101-0.891-0.115-1.319s-0.021-0.81-0.021-1.144
			c0-0.397,0.004-0.851,0.014-1.36c0.009-0.51,0.041-1.03,0.095-1.563c0.054-0.532,0.144-1.051,0.27-1.557
			c0.126-0.505,0.306-0.956,0.54-1.354c0.234-0.396,0.535-0.715,0.904-0.954c0.369-0.238,0.823-0.358,1.363-0.358
			c0.468,0,0.861,0.095,1.181,0.284c0.319,0.189,0.582,0.444,0.79,0.765c0.207,0.32,0.369,0.692,0.486,1.117
			c0.117,0.424,0.202,0.873,0.256,1.347c0.054,0.474,0.085,0.956,0.094,1.448C42.321,37.912,42.326,38.384,42.326,38.835z
			 M39.478,32.934c-0.288,0-0.529,0.1-0.722,0.298s-0.353,0.47-0.479,0.813s-0.225,0.739-0.297,1.19
			c-0.072,0.451-0.124,0.93-0.155,1.435c-0.032,0.506-0.049,1.021-0.054,1.543c-0.005,0.523-0.007,1.029-0.007,1.517
			c0,0.352,0.002,0.733,0.007,1.144c0.004,0.41,0.02,0.821,0.047,1.231c0.027,0.411,0.072,0.806,0.135,1.185
			c0.063,0.379,0.153,0.715,0.27,1.008c0.117,0.294,0.263,0.528,0.438,0.704s0.394,0.264,0.654,0.264
			c0.261,0,0.484-0.092,0.668-0.277c0.185-0.185,0.335-0.431,0.452-0.737c0.117-0.307,0.207-0.661,0.27-1.063
			s0.11-0.821,0.142-1.259c0.032-0.438,0.049-0.878,0.054-1.319c0.004-0.442,0.007-0.857,0.007-1.246
			c0-0.856-0.007-1.673-0.021-2.449c-0.013-0.776-0.065-1.46-0.155-2.051s-0.231-1.06-0.425-1.407
			C40.114,33.107,39.838,32.934,39.478,32.934z"/>
		<path fill="#FFFFFF" d="M50.229,34.733v0.353h-0.526c-0.252-0.019-0.477,0.059-0.675,0.229c-0.198,0.172-0.324,0.375-0.378,0.609
			l-2.24,11.248c0,0.018-0.004,0.033-0.013,0.047c-0.009,0.014-0.014,0.029-0.014,0.048c0,0.162,0.038,0.279,0.115,0.352
			c0.076,0.072,0.171,0.119,0.283,0.142c0.112,0.023,0.231,0.032,0.358,0.027c0.126-0.004,0.243-0.007,0.351-0.007v0.365
			l-3.563-0.026l0.027-0.339h0.607c0.153,0,0.265-0.043,0.337-0.128c0.072-0.086,0.108-0.206,0.108-0.359v-0.148l-1.971-11.383
			c-0.036-0.198-0.09-0.348-0.162-0.447c-0.072-0.099-0.162-0.164-0.27-0.196c-0.108-0.031-0.232-0.045-0.371-0.04
			c-0.14,0.005-0.295,0.007-0.466,0.007v-0.353l3.711-0.026v0.324c-0.135,0-0.268,0.003-0.398,0.007
			c-0.131,0.005-0.248,0.027-0.351,0.068c-0.104,0.04-0.185,0.108-0.243,0.203c-0.059,0.095-0.088,0.236-0.088,0.426
			c0,0.019,0.004,0.032,0.014,0.041c0.009,0.009,0.013,0.022,0.013,0.04l1.714,10.422l2.011-10.341v-0.135
			c0-0.198-0.045-0.348-0.135-0.447c-0.09-0.099-0.203-0.169-0.338-0.209c-0.135-0.041-0.281-0.059-0.438-0.055
			c-0.158,0.005-0.304,0.007-0.438,0.007v-0.325H50.229z"/>
		<path fill="#FFFFFF" d="M51.654,38.47c0.404,0,0.735,0.007,0.991,0.021c0.257,0.013,0.452-0.016,0.588-0.089
			c0.135-0.071,0.223-0.207,0.263-0.405c0.041-0.198,0.056-0.51,0.047-0.935h0.459v3.654h-0.459V39.66
			c0-0.071-0.011-0.153-0.033-0.243s-0.057-0.174-0.102-0.25c-0.045-0.077-0.099-0.143-0.162-0.196
			c-0.063-0.055-0.14-0.082-0.229-0.082l-1.362,0.027l0.148,5.4c0.278,0,0.549,0,0.81,0s0.521-0.009,0.782-0.027
			c0.171-0.009,0.336-0.059,0.493-0.148s0.297-0.203,0.418-0.339c0.122-0.135,0.218-0.286,0.29-0.453s0.108-0.331,0.108-0.494
			l0.027-1.908h0.472l-0.04,3.79c-1.035,0.018-2.074,0.043-3.118,0.074c-1.043,0.032-2.083,0.061-3.117,0.088L48.9,44.411
			c0.234,0,0.443-0.002,0.628-0.007c0.185-0.004,0.34-0.038,0.466-0.102c0.126-0.063,0.223-0.167,0.29-0.311
			c0.067-0.145,0.102-0.356,0.102-0.637v-0.081l-0.189-8.73c-0.009-0.279-0.05-0.503-0.121-0.67
			c-0.072-0.166-0.174-0.291-0.304-0.372c-0.131-0.081-0.293-0.131-0.486-0.148c-0.193-0.019-0.416-0.022-0.668-0.014l-0.026-0.46
			l6.275-0.176l0.026,3.857h-0.472l-0.027-2.018c0-0.352-0.074-0.658-0.223-0.92s-0.425-0.393-0.83-0.393
			c-0.306,0-0.605,0.005-0.897,0.014s-0.592,0.014-0.897,0.014L51.654,38.47z"/>
		<path fill="#FFFFFF" d="M57.572,34.017h2.902v0.46h-1.634c-0.188,0-0.362,0.052-0.52,0.156c-0.157,0.104-0.29,0.236-0.397,0.398
			c-0.108,0.163-0.191,0.339-0.25,0.528s-0.093,0.365-0.102,0.527l-0.054,10.017c0,0.226,0.007,0.491,0.021,0.798
			c0.014,0.308,0.061,0.601,0.142,0.88c0.081,0.28,0.207,0.517,0.378,0.711c0.171,0.193,0.414,0.291,0.729,0.291
			c0.216,0,0.392-0.055,0.526-0.162c0.135-0.108,0.24-0.244,0.317-0.406c0.076-0.163,0.128-0.339,0.155-0.528
			c0.026-0.189,0.036-0.37,0.026-0.541l0.5,0.122c0,0.433-0.057,0.791-0.169,1.075s-0.257,0.508-0.432,0.67
			c-0.176,0.163-0.376,0.275-0.601,0.339c-0.226,0.063-0.45,0.095-0.675,0.095c-0.441,0-0.808-0.113-1.1-0.339
			c-0.293-0.226-0.524-0.507-0.695-0.846c-0.171-0.338-0.293-0.71-0.364-1.116c-0.072-0.406-0.108-0.785-0.108-1.137l0.054-11.532
			h-1.714v-0.46h1.714l0.027-3.33l1.35-1.163L57.572,34.017z"/>
		<path fill="#FFFFFF" d="M62.736,47.511h0.81l-0.027,0.501l-4.399-0.055v-0.474h0.77c0.108,0,0.211-0.031,0.311-0.095
			c0.099-0.063,0.182-0.14,0.25-0.229c0.067-0.091,0.121-0.189,0.161-0.298c0.041-0.108,0.062-0.208,0.062-0.298l0.08-11.085
			c0-0.253-0.052-0.44-0.154-0.562c-0.104-0.122-0.234-0.205-0.392-0.251c-0.158-0.045-0.333-0.063-0.526-0.054
			s-0.381,0.014-0.561,0.014v-0.474c0.513,0,1.02-0.005,1.519-0.014s1.006-0.014,1.519-0.014c0.647,0,1.226,0.069,1.733,0.21
			c0.509,0.14,0.938,0.363,1.289,0.67c0.352,0.307,0.616,0.701,0.797,1.184c0.18,0.483,0.27,1.067,0.27,1.753
			c0,0.361-0.043,0.738-0.128,1.131c-0.086,0.392-0.221,0.758-0.405,1.096c-0.185,0.339-0.423,0.625-0.715,0.859
			c-0.293,0.235-0.65,0.37-1.073,0.406c0.585,0.253,1.048,0.627,1.39,1.123c0.342,0.497,0.526,1.056,0.554,1.679
			c0.018,0.596,0.043,1.188,0.074,1.78c0.031,0.591,0.069,1.18,0.115,1.766c0.018,0.262,0.056,0.501,0.114,0.718
			s0.144,0.406,0.257,0.568c0.112,0.162,0.261,0.288,0.445,0.379c0.184,0.09,0.411,0.14,0.681,0.148v0.406
			c-0.377,0-0.729-0.063-1.052-0.189c-0.324-0.126-0.612-0.293-0.864-0.501c-0.252-0.207-0.459-0.446-0.621-0.717
			c-0.161-0.271-0.265-0.551-0.31-0.839c-0.1-0.569-0.146-1.146-0.143-1.733c0.005-0.586-0.016-1.173-0.061-1.759
			c-0.018-0.234-0.059-0.508-0.121-0.819c-0.063-0.312-0.162-0.608-0.297-0.894c-0.135-0.284-0.306-0.525-0.513-0.724
			s-0.455-0.298-0.742-0.298h-0.783l-0.027,5.063c0,0.099,0.019,0.202,0.055,0.311c0.035,0.108,0.085,0.208,0.148,0.298
			c0.063,0.091,0.14,0.165,0.229,0.224S62.637,47.511,62.736,47.511z M62.912,41.136c0.413,0,0.744-0.117,0.991-0.352
			c0.248-0.234,0.437-0.521,0.567-0.859c0.13-0.339,0.216-0.702,0.256-1.09c0.041-0.388,0.061-0.74,0.061-1.056
			c0-0.406-0.035-0.801-0.107-1.185c-0.072-0.383-0.198-0.72-0.378-1.008c-0.18-0.289-0.425-0.521-0.735-0.697
			s-0.704-0.264-1.181-0.264c-0.055,0-0.104,0-0.148,0c-0.046,0-0.091,0.009-0.136,0.026l-0.054,6.483H62.912z"/>
		<path fill="#FFFFFF" d="M68.629,38.47c0.404,0,0.735,0.007,0.991,0.021c0.257,0.013,0.452-0.016,0.588-0.089
			c0.135-0.071,0.223-0.207,0.263-0.405c0.041-0.198,0.056-0.51,0.047-0.935h0.459v3.654h-0.459V39.66
			c0-0.071-0.011-0.153-0.033-0.243s-0.057-0.174-0.102-0.25c-0.045-0.077-0.099-0.143-0.162-0.196
			c-0.063-0.055-0.14-0.082-0.229-0.082l-1.362,0.027l0.148,5.4c0.278,0,0.549,0,0.81,0s0.521-0.009,0.782-0.027
			c0.171-0.009,0.336-0.059,0.493-0.148s0.297-0.203,0.418-0.339c0.122-0.135,0.218-0.286,0.29-0.453s0.108-0.331,0.108-0.494
			l0.027-1.908h0.472l-0.04,3.79c-1.035,0.018-2.074,0.043-3.118,0.074c-1.043,0.032-2.083,0.061-3.117,0.088l-0.027-0.487
			c0.234,0,0.443-0.002,0.628-0.007c0.185-0.004,0.34-0.038,0.466-0.102c0.126-0.063,0.223-0.167,0.29-0.311
			c0.067-0.145,0.102-0.356,0.102-0.637v-0.081l-0.189-8.73c-0.009-0.279-0.05-0.503-0.121-0.67
			c-0.072-0.166-0.174-0.291-0.304-0.372c-0.131-0.081-0.293-0.131-0.486-0.148c-0.193-0.019-0.416-0.022-0.668-0.014l-0.026-0.46
			l6.275-0.176l0.026,3.857h-0.472l-0.027-2.018c0-0.352-0.074-0.658-0.223-0.92s-0.425-0.393-0.83-0.393
			c-0.306,0-0.605,0.005-0.897,0.014s-0.592,0.014-0.897,0.014L68.629,38.47z"/>
		<path fill="#FFFFFF" d="M74.602,38.47c0.404,0,0.735,0.007,0.991,0.021c0.257,0.013,0.452-0.016,0.588-0.089
			c0.135-0.071,0.223-0.207,0.263-0.405c0.041-0.198,0.056-0.51,0.047-0.935h0.459v3.654H76.49V39.66
			c0-0.071-0.011-0.153-0.033-0.243s-0.057-0.174-0.102-0.25c-0.045-0.077-0.099-0.143-0.162-0.196
			c-0.063-0.055-0.14-0.082-0.229-0.082l-1.362,0.027l0.148,5.4c0.278,0,0.549,0,0.81,0s0.521-0.009,0.782-0.027
			c0.171-0.009,0.336-0.059,0.493-0.148s0.297-0.203,0.418-0.339c0.122-0.135,0.218-0.286,0.29-0.453s0.108-0.331,0.108-0.494
			l0.027-1.908h0.472l-0.04,3.79c-1.035,0.018-2.074,0.043-3.118,0.074c-1.043,0.032-2.083,0.061-3.117,0.088l-0.027-0.487
			c0.234,0,0.443-0.002,0.628-0.007c0.185-0.004,0.34-0.038,0.466-0.102c0.126-0.063,0.223-0.167,0.29-0.311
			c0.067-0.145,0.102-0.356,0.102-0.637v-0.081l-0.189-8.73c-0.009-0.279-0.05-0.503-0.121-0.67
			c-0.072-0.166-0.174-0.291-0.304-0.372c-0.131-0.081-0.293-0.131-0.486-0.148c-0.193-0.019-0.416-0.022-0.668-0.014l-0.026-0.46
			l6.275-0.176l0.026,3.857h-0.472l-0.027-2.018c0-0.352-0.074-0.658-0.223-0.92s-0.425-0.393-0.83-0.393
			c-0.306,0-0.605,0.005-0.897,0.014s-0.592,0.014-0.897,0.014L74.602,38.47z"/>
	</g>
</g>
<g id="alarm">
	<g>
		<path fill="#AAAAAA" d="M82.586,42.918c-0.081,0.016-0.153,0.028-0.215,0.038c-0.063,0.009-0.125,0.014-0.188,0.016
			c0.129,0.09,0.237,0.208,0.324,0.353c0.087,0.146,0.13,0.301,0.13,0.468c0,0.277-0.071,0.488-0.215,0.634
			c-0.143,0.145-0.341,0.217-0.593,0.217c-0.257,0-0.457-0.103-0.603-0.309c-0.145-0.205-0.218-0.484-0.218-0.837v-0.525h-0.266
			c-0.157,0-0.282,0.048-0.374,0.143s-0.138,0.229-0.138,0.403c0,0.157,0.04,0.284,0.119,0.381c0.08,0.097,0.175,0.145,0.286,0.145
			l0.005,0.46l-0.015,0.005c-0.196,0.012-0.375-0.079-0.537-0.271s-0.244-0.441-0.244-0.746c0-0.302,0.078-0.544,0.232-0.728
			c0.155-0.184,0.379-0.275,0.67-0.275h1.295c0.097,0,0.189-0.005,0.278-0.015c0.09-0.01,0.178-0.027,0.264-0.054V42.918z
			 M82.229,43.721c0-0.175-0.046-0.333-0.137-0.474c-0.092-0.142-0.196-0.232-0.313-0.275h-0.438v0.543
			c0,0.195,0.05,0.352,0.149,0.469c0.099,0.116,0.216,0.175,0.351,0.175c0.119,0,0.213-0.036,0.283-0.11
			C82.193,43.975,82.229,43.865,82.229,43.721z"/>
		<path fill="#AAAAAA" d="M82.586,41.513v0.484h-3.877v-0.484H82.586z"/>
		<path fill="#AAAAAA" d="M82.586,39.386c-0.081,0.016-0.153,0.028-0.215,0.038c-0.063,0.009-0.125,0.014-0.188,0.016
			c0.129,0.09,0.237,0.208,0.324,0.353c0.087,0.146,0.13,0.301,0.13,0.468c0,0.277-0.071,0.488-0.215,0.634
			c-0.143,0.145-0.341,0.217-0.593,0.217c-0.257,0-0.457-0.103-0.603-0.309c-0.145-0.205-0.218-0.484-0.218-0.837v-0.525h-0.266
			c-0.157,0-0.282,0.048-0.374,0.143s-0.138,0.229-0.138,0.403c0,0.157,0.04,0.284,0.119,0.381c0.08,0.097,0.175,0.145,0.286,0.145
			l0.005,0.46l-0.015,0.005c-0.196,0.012-0.375-0.079-0.537-0.271s-0.244-0.441-0.244-0.746c0-0.302,0.078-0.544,0.232-0.728
			c0.155-0.184,0.379-0.275,0.67-0.275h1.295c0.097,0,0.189-0.005,0.278-0.015c0.09-0.01,0.178-0.027,0.264-0.054V39.386z
			 M82.229,40.188c0-0.175-0.046-0.333-0.137-0.474c-0.092-0.142-0.196-0.232-0.313-0.275h-0.438v0.543
			c0,0.195,0.05,0.352,0.149,0.469c0.099,0.116,0.216,0.175,0.351,0.175c0.119,0,0.213-0.036,0.283-0.11
			C82.193,40.442,82.229,40.333,82.229,40.188z"/>
		<path fill="#AAAAAA" d="M80.329,37.246l-0.015,0.248c0,0.128,0.03,0.235,0.092,0.323c0.062,0.087,0.147,0.155,0.259,0.202h1.921
			v0.484h-2.689v-0.433l0.393-0.047c-0.139-0.075-0.247-0.168-0.325-0.278c-0.078-0.111-0.117-0.238-0.117-0.383
			c0-0.036,0.003-0.07,0.009-0.103c0.006-0.033,0.013-0.061,0.019-0.081L80.329,37.246z"/>
		<path fill="#AAAAAA" d="M79.896,36.561l0.354-0.034c-0.128-0.087-0.227-0.197-0.297-0.331c-0.07-0.133-0.106-0.288-0.106-0.465
			c0-0.178,0.042-0.329,0.125-0.456s0.207-0.223,0.372-0.286c-0.153-0.086-0.275-0.196-0.363-0.333
			c-0.089-0.138-0.134-0.298-0.134-0.48c0-0.271,0.095-0.484,0.282-0.642c0.188-0.157,0.472-0.236,0.849-0.236h1.608v0.484h-1.613
			c-0.265,0-0.452,0.045-0.563,0.135c-0.11,0.091-0.165,0.225-0.165,0.403c0,0.165,0.058,0.3,0.174,0.401
			c0.116,0.103,0.263,0.163,0.439,0.181h0.021h1.707v0.487h-1.613c-0.252,0-0.436,0.046-0.553,0.139s-0.175,0.226-0.175,0.399
			c0,0.147,0.03,0.269,0.092,0.363c0.062,0.096,0.147,0.168,0.258,0.219h1.991v0.484h-2.689V36.561z"/>
	</g>
</g>
<g id="waking_up_is_fun">
	<g>
		<path fill="#271C03" d="M68.279,48.289l0.038,0.21h0.009l0.039-0.21l0.326-1.04h0.238l0.327,1.04l0.042,0.234h0.009l0.049-0.234
			l0.241-1.04h0.311l-0.474,1.636h-0.24l-0.322-0.996l-0.062-0.261h-0.01l-0.057,0.261l-0.316,0.996h-0.24l-0.474-1.636h0.31
			L68.279,48.289z"/>
		<path fill="#271C03" d="M71.047,48.885c-0.01-0.05-0.018-0.093-0.023-0.131c-0.005-0.038-0.009-0.076-0.01-0.114
			c-0.055,0.079-0.127,0.145-0.216,0.197s-0.185,0.08-0.287,0.08c-0.17,0-0.3-0.044-0.389-0.131
			c-0.089-0.088-0.133-0.208-0.133-0.361c0-0.156,0.063-0.278,0.188-0.366s0.298-0.133,0.514-0.133h0.322v-0.161
			c0-0.096-0.029-0.172-0.087-0.228c-0.059-0.056-0.141-0.084-0.247-0.084c-0.097,0-0.175,0.024-0.234,0.072
			c-0.059,0.049-0.089,0.106-0.089,0.174l-0.281,0.003l-0.003-0.009c-0.008-0.119,0.048-0.228,0.166-0.326s0.271-0.148,0.458-0.148
			c0.185,0,0.333,0.047,0.446,0.142c0.112,0.094,0.168,0.229,0.168,0.407v0.788c0,0.058,0.004,0.114,0.01,0.169
			s0.017,0.107,0.033,0.16H71.047z M70.555,48.667c0.107,0,0.204-0.027,0.29-0.083c0.087-0.056,0.144-0.119,0.169-0.19v-0.267
			h-0.333c-0.119,0-0.215,0.03-0.287,0.091c-0.071,0.061-0.107,0.132-0.107,0.214c0,0.072,0.022,0.13,0.067,0.172
			C70.399,48.646,70.466,48.667,70.555,48.667z"/>
		<path fill="#271C03" d="M72.038,48.13h-0.152v0.755h-0.297v-2.358h0.297v1.366h0.149l0.49-0.644h0.355l-0.592,0.754l0.644,0.882
			h-0.352L72.038,48.13z"/>
		<path fill="#271C03" d="M73.337,46.83h-0.298v-0.304h0.298V46.83z M73.337,48.885h-0.298v-1.636h0.298V48.885z"/>
		<path fill="#271C03" d="M73.904,47.249l0.021,0.243c0.055-0.087,0.122-0.153,0.204-0.202c0.082-0.048,0.176-0.071,0.28-0.071
			c0.176,0,0.312,0.052,0.408,0.155c0.097,0.103,0.145,0.263,0.145,0.479v1.032h-0.297v-1.026c0-0.145-0.028-0.247-0.085-0.307
			c-0.057-0.061-0.144-0.091-0.261-0.091c-0.091,0-0.169,0.018-0.232,0.055s-0.114,0.089-0.151,0.155v1.214H73.64v-1.636H73.904z"/>
		<path fill="#271C03" d="M75.188,48.097c0-0.263,0.056-0.475,0.168-0.636s0.269-0.242,0.47-0.242c0.104,0,0.194,0.021,0.272,0.063
			s0.145,0.103,0.197,0.181l0.036-0.213h0.237v1.645c0,0.21-0.062,0.371-0.183,0.483c-0.122,0.112-0.297,0.169-0.526,0.169
			c-0.078,0-0.163-0.012-0.254-0.033s-0.171-0.051-0.24-0.088l0.045-0.231c0.058,0.03,0.127,0.055,0.207,0.073
			c0.081,0.019,0.161,0.028,0.239,0.028c0.145,0,0.25-0.033,0.316-0.1c0.065-0.065,0.099-0.166,0.099-0.302v-0.186
			c-0.054,0.068-0.117,0.12-0.191,0.155c-0.075,0.035-0.161,0.054-0.258,0.054c-0.199,0-0.354-0.073-0.467-0.218
			s-0.168-0.335-0.168-0.57V48.097z M75.484,48.129c0,0.164,0.033,0.296,0.101,0.396c0.067,0.1,0.172,0.149,0.313,0.149
			c0.089,0,0.164-0.021,0.225-0.062s0.109-0.099,0.149-0.173v-0.753c-0.039-0.069-0.088-0.125-0.149-0.166
			c-0.062-0.04-0.136-0.061-0.222-0.061c-0.142,0-0.247,0.059-0.314,0.177s-0.102,0.271-0.102,0.459V48.129z"/>
		<path fill="#271C03" d="M78.488,48.643c-0.051,0.088-0.117,0.155-0.197,0.203c-0.08,0.047-0.173,0.071-0.279,0.071
			c-0.178,0-0.316-0.058-0.416-0.171c-0.099-0.114-0.148-0.292-0.148-0.532v-0.965h0.297v0.968c0,0.174,0.025,0.294,0.076,0.359
			c0.052,0.065,0.132,0.099,0.24,0.099c0.105,0,0.192-0.021,0.262-0.064c0.068-0.043,0.12-0.104,0.155-0.183v-1.179h0.298v1.636
			h-0.268L78.488,48.643z"/>
		<path fill="#271C03" d="M80.443,48.129c0,0.235-0.057,0.426-0.169,0.57s-0.268,0.218-0.466,0.218
			c-0.101,0-0.188-0.018-0.265-0.051c-0.076-0.034-0.141-0.085-0.193-0.152v0.8h-0.297v-2.265h0.228l0.047,0.212
			c0.053-0.079,0.119-0.139,0.198-0.181c0.08-0.041,0.172-0.062,0.277-0.062c0.202,0,0.359,0.08,0.472,0.241
			c0.112,0.16,0.168,0.373,0.168,0.637V48.129z M80.146,48.097c0-0.185-0.036-0.338-0.109-0.457s-0.18-0.179-0.322-0.179
			c-0.085,0-0.158,0.02-0.218,0.058c-0.061,0.039-0.109,0.092-0.146,0.16v0.79c0.037,0.067,0.086,0.12,0.146,0.158
			c0.06,0.038,0.134,0.057,0.222,0.057c0.141,0,0.247-0.052,0.319-0.155c0.072-0.103,0.108-0.236,0.108-0.399V48.097z"/>
		<path fill="#271C03" d="M81.588,46.83H81.29v-0.304h0.298V46.83z M81.588,48.885H81.29v-1.636h0.298V48.885z"/>
		<path fill="#271C03" d="M82.839,48.444c0-0.065-0.025-0.118-0.075-0.16c-0.05-0.041-0.144-0.077-0.282-0.108
			c-0.192-0.041-0.34-0.1-0.442-0.174c-0.104-0.074-0.154-0.175-0.154-0.3c0-0.133,0.056-0.247,0.169-0.342s0.26-0.142,0.439-0.142
			c0.186,0,0.335,0.051,0.449,0.151c0.115,0.101,0.17,0.218,0.164,0.352l-0.003,0.01H82.82c0-0.07-0.03-0.135-0.093-0.192
			c-0.062-0.058-0.14-0.086-0.234-0.086c-0.104,0-0.183,0.023-0.234,0.071c-0.052,0.047-0.077,0.104-0.077,0.169
			c0,0.064,0.022,0.114,0.066,0.149c0.045,0.035,0.138,0.067,0.277,0.097c0.199,0.043,0.352,0.103,0.455,0.181
			c0.104,0.077,0.155,0.179,0.155,0.304c0,0.145-0.059,0.264-0.176,0.355s-0.271,0.138-0.459,0.138
			c-0.208,0-0.372-0.054-0.491-0.159c-0.12-0.105-0.177-0.229-0.171-0.37l0.003-0.01h0.284c0.005,0.106,0.044,0.184,0.117,0.232
			s0.159,0.073,0.258,0.073c0.105,0,0.188-0.022,0.248-0.067S82.839,48.515,82.839,48.444z"/>
		<path fill="#271C03" d="M84.087,48.885V47.47h-0.255v-0.221h0.255v-0.207c0-0.175,0.046-0.31,0.137-0.404
			c0.091-0.096,0.218-0.144,0.381-0.144c0.034,0,0.068,0.003,0.104,0.009c0.034,0.006,0.072,0.014,0.115,0.023l-0.036,0.227
			c-0.019-0.004-0.04-0.008-0.066-0.011c-0.025-0.003-0.052-0.004-0.08-0.004c-0.087,0-0.151,0.025-0.193,0.077
			c-0.042,0.053-0.063,0.128-0.063,0.227v0.207h0.296v0.221h-0.296v1.415H84.087z"/>
		<path fill="#271C03" d="M85.86,48.643c-0.051,0.088-0.117,0.155-0.197,0.203c-0.08,0.047-0.173,0.071-0.279,0.071
			c-0.178,0-0.316-0.058-0.416-0.171c-0.099-0.114-0.148-0.292-0.148-0.532v-0.965h0.297v0.968c0,0.174,0.025,0.294,0.076,0.359
			c0.052,0.065,0.132,0.099,0.24,0.099c0.105,0,0.192-0.021,0.262-0.064c0.068-0.043,0.12-0.104,0.155-0.183v-1.179h0.298v1.636
			H85.88L85.86,48.643z"/>
		<path fill="#271C03" d="M86.69,47.249l0.021,0.243c0.055-0.087,0.122-0.153,0.204-0.202c0.082-0.048,0.176-0.071,0.28-0.071
			c0.176,0,0.312,0.052,0.408,0.155c0.097,0.103,0.145,0.263,0.145,0.479v1.032h-0.297v-1.026c0-0.145-0.028-0.247-0.085-0.307
			c-0.057-0.061-0.144-0.091-0.261-0.091c-0.091,0-0.169,0.018-0.232,0.055s-0.114,0.089-0.151,0.155v1.214h-0.297v-1.636H86.69z"/>
	</g>
</g>
</svg>
