<?xml version="1.0" encoding="utf-8"?>
<!-- Generator: Adobe Illustrator 18.1.1, SVG Export Plug-In . SVG Version: 6.00 Build 0)  -->
<svg version="1.1" id="springstorm_logo_1_" xmlns="http://www.w3.org/2000/svg" xmlns:xlink="http://www.w3.org/1999/xlink"
	 x="0px" y="0px" width="226px" height="50px" viewBox="0 0 226 50" enable-background="new 0 0 226 50" xml:space="preserve">
<g id="Ellipse_7_copy_3">
	<g>
		<path fill-rule="evenodd" clip-rule="evenodd" fill="#34CD63" d="M144.26,21.75c-2.923-12.919-16.722-22.32-31.674-21.721
			c-14.608,0.586-25.938,10.606-25.84,23.546c0.111,14.578,14.684,26.794,31.607,26.428C135.736,49.626,147.55,36.293,144.26,21.75z
			"/>
	</g>
</g>
<g id="Shape_2_copy_8">
	<g>
		<path fill-rule="evenodd" clip-rule="evenodd" fill="#FFFFFF" d="M126.088,18.272c-5.686-2.31-11.143-1.769-13.819-1.634
			c-3.14-0.089-6.482-2.774-5.473-6.658c1.084-4.11,5.131-4.273,5.131-4.273s4.932-0.586,7.511,1.171
			c3.649-1.693,4.463-0.097,4.463-0.097s2.415-0.305,2.807-0.957c0.392-0.652-4.338-2.165-6.629-2.503
			c-2.291-0.338-10.481-0.621-13.351,0.543c4.494-0.294,5.378,0.209,5.247,0.496c-0.131,0.287-7.823,1.042-10.317,2.644
			c1.439-0.18,2.072-0.364,1.986,0.67c-0.086,1.034-2.974,1.768-3.304,3.716c1.592-0.954,2.502-0.564,2.871,0.105
			c0.369,0.669-0.296,2.365,0.031,3.005c0.291-0.244,0.762-0.979,1.3-0.419c1.63,1.728,3.888,3.137,9.224,4.431
			c0.861,0.302,3.069,1.893,2.151,4.463c-1.448,3.222-4.563,1.899-5.153,1.612c-0.783,0.31,2.896,3.069,4.981,3.708
			c2.085,0.639,4.323,0.445,6.835,0.956c2.512,0.51,5.179,3.268,6.151,5.581c0.581-0.087,0.013-2.829-1.868-4.75
			c-1.881-1.921-3.439-2.753-3.465-3.226c-0.027-0.473,1.332-0.002,2.224,1.082c0.523-0.339-0.119-1.714-1.54-2.851
			c-1.421-1.136-1.998-1.325-2.085-1.602c-0.011-0.628,1.019-0.001,1.165-0.176c0.147-0.175-1.016-1.318-0.726-2.11
			c0.29-0.792,1.118-1.03,2.009-0.718c3.878,1.924,9.359,9.272,5.294,17.617c-3.071,5.673-7.811,7.097-12.036,7.337
			c-4.225,0.239-12.16-1.291-16.057-4.844c-0.166-0.16-0.322-0.27-0.239-0.412c0.254-0.402,2.502,0.045,2.887-0.343
			c-4.675-0.352-12.361-7.836-12.461-8.104c-0.273,1.753,6.449,7.65,8.901,9.546c2.451,1.897,8.858,5.54,17.198,5.813
			c4.767-0.121,10.258-2.595,14.057-7.485C136.938,33.791,136.562,22.789,126.088,18.272z"/>
	</g>
</g>
<g id="spring">
	<g>
		<path fill="#FFFFFF" d="M11.417,33.154c-0.619,0-1.167-0.033-1.642-0.1c-0.476-0.066-0.89-0.144-1.244-0.231
			c-0.398-0.088-0.752-0.21-1.061-0.364l-0.1-0.232c0.022-0.177,0.055-0.452,0.1-0.828c0.044-0.375,0.088-0.789,0.132-1.242
			c0.044-0.452,0.083-0.895,0.116-1.325s0.05-0.778,0.05-1.043l1.161-0.166c0,1.458,0.237,2.484,0.713,3.081
			c0.475,0.596,1.31,0.895,2.504,0.895c0.84,0,1.547-0.188,2.123-0.563c0.575-0.375,0.862-0.839,0.862-1.392
			c0-0.265-0.056-0.519-0.166-0.762c-0.111-0.243-0.315-0.491-0.613-0.745c-0.299-0.254-0.697-0.535-1.194-0.845
			c-0.498-0.31-1.123-0.663-1.874-1.061c-1.26-0.641-2.178-1.286-2.752-1.938c-0.575-0.651-0.862-1.375-0.862-2.17
			c0-0.684,0.154-1.313,0.464-1.888c0.31-0.574,0.735-1.071,1.277-1.491c0.542-0.419,1.188-0.75,1.94-0.994
			c0.751-0.243,1.559-0.365,2.421-0.365c0.442,0,0.862,0.028,1.26,0.083c0.398,0.056,0.751,0.116,1.061,0.182
			c0.354,0.089,0.685,0.177,0.995,0.265l0.066,0.166c-0.089,0.376-0.177,0.773-0.266,1.193c-0.066,0.375-0.132,0.806-0.199,1.292
			s-0.122,1.005-0.166,1.557l-1.227,0.1c0-0.132,0.011-0.253,0.033-0.364c0-0.11,0.005-0.215,0.017-0.315
			c0.011-0.099,0.017-0.193,0.017-0.282c0-0.795-0.215-1.375-0.646-1.739c-0.431-0.365-1.123-0.547-2.073-0.547
			c-0.752,0-1.388,0.177-1.907,0.53c-0.52,0.354-0.779,0.784-0.779,1.292c0,0.53,0.221,1.027,0.663,1.491
			c0.442,0.464,1.183,0.96,2.222,1.491c0.884,0.464,1.625,0.889,2.222,1.275c0.597,0.387,1.078,0.757,1.442,1.109
			c0.365,0.354,0.619,0.707,0.763,1.061c0.144,0.354,0.216,0.74,0.216,1.159c0,0.641-0.166,1.248-0.498,1.822
			s-0.774,1.082-1.327,1.523c-0.553,0.442-1.194,0.79-1.923,1.044S12.235,33.154,11.417,33.154z"/>
		<path fill="#FFFFFF" d="M19.078,39.316c0.354-0.045,0.641-0.105,0.862-0.183c0.221-0.077,0.392-0.204,0.514-0.381
			s0.205-0.409,0.249-0.695c0.044-0.287,0.066-0.663,0.066-1.127c0-0.265,0.005-0.635,0.017-1.109
			c0.011-0.476,0.017-0.978,0.017-1.508c0-0.529,0.005-1.055,0.017-1.573c0.011-0.519,0.017-0.955,0.017-1.309V21.56
			c0-0.75-0.122-1.275-0.365-1.574c-0.243-0.298-0.663-0.447-1.26-0.447h-0.365l-0.099-0.132l0.099-1.093
			c0.575-0.088,1.139-0.188,1.691-0.298s1.05-0.221,1.493-0.332c0.508-0.11,0.995-0.221,1.459-0.331l0.199,0.265
			c-0.044,0.177-0.088,0.365-0.132,0.563c-0.044,0.177-0.083,0.37-0.116,0.58c-0.033,0.21-0.061,0.425-0.083,0.646l0.133,0.232
			c0.995-0.684,1.824-1.214,2.487-1.59c0.663-0.375,1.116-0.563,1.359-0.563c0.951,0,1.818,0.171,2.604,0.514
			c0.785,0.342,1.459,0.817,2.023,1.424c0.564,0.608,1,1.342,1.31,2.203c0.309,0.861,0.464,1.811,0.464,2.849
			c0,1.193-0.222,2.314-0.664,3.362c-0.442,1.05-1.034,1.972-1.774,2.767c-0.741,0.795-1.614,1.419-2.62,1.872
			c-1.006,0.452-2.073,0.679-3.2,0.679c-0.199,0-0.442-0.006-0.729-0.017c-0.288-0.012-0.553-0.028-0.796-0.05
			c-0.288-0.022-0.586-0.044-0.896-0.066c0,0.574,0.005,1.144,0.017,1.706c0.011,0.563,0.017,1.132,0.017,1.706
			c0,1.016,0.1,1.706,0.298,2.071c0.199,0.364,0.619,0.546,1.26,0.546c0.177,0,0.365-0.005,0.564-0.017
			c0.199-0.011,0.386-0.017,0.563-0.017l0.066,0.1l-0.265,1.259h-3.15c-0.487,0-0.94,0.011-1.36,0.033
			c-0.42,0.021-0.785,0.055-1.094,0.1c-0.376,0.044-0.73,0.077-1.062,0.1L19.078,39.316z M23.091,30.703
			c0.442,0.177,0.967,0.326,1.575,0.447c0.608,0.121,1.188,0.182,1.741,0.182c1.481,0,2.647-0.502,3.499-1.507
			c0.851-1.005,1.277-2.38,1.277-4.124c0-0.84-0.111-1.624-0.332-2.353c-0.221-0.729-0.531-1.358-0.929-1.888
			c-0.398-0.53-0.862-0.95-1.393-1.259c-0.53-0.309-1.105-0.463-1.724-0.463c-0.443,0-0.984,0.149-1.625,0.447
			c-0.642,0.298-1.25,0.691-1.824,1.176c-0.044,0.685-0.083,1.419-0.116,2.203c-0.033,0.784-0.062,1.59-0.083,2.418
			c-0.022,0.828-0.039,1.646-0.05,2.451C23.096,29.24,23.091,29.996,23.091,30.703z"/>
		<path fill="#FFFFFF" d="M36.555,30.918c0.221-0.364,0.332-1.065,0.332-2.104v-7.288c0-0.729-0.1-1.248-0.298-1.557
			c-0.199-0.309-0.52-0.463-0.962-0.463c-0.155,0-0.321,0.022-0.498,0.066c-0.088,0.022-0.155,0.033-0.199,0.033l-0.166-0.232
			l0.1-1.027c0.508-0.088,1.022-0.188,1.542-0.298c0.52-0.11,1-0.22,1.443-0.331c0.508-0.11,1.005-0.232,1.492-0.364l0.232,0.199
			c-0.066,0.354-0.122,0.729-0.166,1.126c-0.044,0.332-0.083,0.702-0.116,1.11c-0.033,0.409-0.039,0.801-0.017,1.176l0.133,0.099
			c0.332-0.53,0.702-1.01,1.111-1.441c0.409-0.431,0.823-0.8,1.244-1.11c0.42-0.309,0.829-0.552,1.227-0.729
			s0.763-0.265,1.094-0.265c0.31,0,0.575,0.022,0.796,0.066c0.088,0.022,0.166,0.044,0.232,0.066l0.099,0.133l-0.232,1.623
			c-0.066,0.464-0.127,0.972-0.183,1.524c-0.055,0.552-0.094,1.083-0.116,1.59l-1.293,0.099c0-0.905-0.061-1.507-0.183-1.805
			c-0.122-0.298-0.359-0.447-0.713-0.447c-0.486,0-1.006,0.199-1.559,0.596c-0.553,0.397-1.061,0.95-1.525,1.656
			c-0.044,1.148-0.089,2.187-0.133,3.115c-0.022,0.396-0.039,0.794-0.05,1.192c-0.011,0.397-0.022,0.762-0.033,1.093
			s-0.022,0.618-0.033,0.861s-0.017,0.409-0.017,0.497c0,0.751,0.105,1.259,0.315,1.523c0.209,0.266,0.635,0.397,1.277,0.397
			c0.11,0,0.249,0,0.414,0c0.166,0,0.326-0.011,0.481-0.033c0.177,0,0.365-0.011,0.564-0.032l0.033,0.132l-0.298,1.458
			c-0.398,0-0.796-0.012-1.194-0.033c-0.354,0-0.73-0.006-1.128-0.017c-0.398-0.012-0.752-0.017-1.061-0.017
			c-0.509,0-0.973,0.005-1.393,0.017c-0.42,0.011-0.785,0.027-1.094,0.05c-0.376,0.021-0.708,0.044-0.995,0.066l0.166-1.325
			C35.892,31.498,36.333,31.282,36.555,30.918z"/>
		<path fill="#FFFFFF" d="M45.907,31.796c0.663-0.177,1.139-0.436,1.426-0.778c0.287-0.342,0.431-0.8,0.431-1.375v-8.414
			c0-1.193-0.409-1.789-1.227-1.789c-0.155,0-0.343,0.022-0.563,0.066c-0.089,0.022-0.177,0.044-0.265,0.066l0.132-1.226
			c0.552-0.088,1.111-0.182,1.675-0.282c0.564-0.099,1.078-0.204,1.542-0.314c0.553-0.11,1.072-0.232,1.559-0.365l0.166,0.398
			c-0.111,0.243-0.21,0.745-0.298,1.507c-0.089,0.762-0.166,1.684-0.232,2.766s-0.122,2.269-0.166,3.561
			c-0.045,1.293-0.066,2.59-0.066,3.894c0,1.236,0.387,1.854,1.161,1.854c0.11,0,0.232,0,0.365,0s0.254-0.011,0.365-0.033
			c0.133,0,0.276-0.011,0.431-0.033l0.066,0.133l-0.265,1.425c-0.332,0-0.675-0.012-1.028-0.033c-0.31-0.022-0.63-0.039-0.961-0.05
			c-0.332-0.012-0.653-0.017-0.962-0.017c-0.354,0-0.729,0.021-1.127,0.066c-0.398,0.044-0.763,0.088-1.095,0.133
			c-0.398,0.065-0.796,0.132-1.194,0.198L45.907,31.796z M48.726,12.814c-0.486,0-0.879-0.154-1.177-0.464
			c-0.298-0.309-0.448-0.717-0.448-1.226c0-0.552,0.188-1.016,0.564-1.392c0.375-0.375,0.84-0.563,1.393-0.563
			c0.464,0,0.851,0.155,1.161,0.464s0.464,0.718,0.464,1.226c0,0.552-0.188,1.016-0.563,1.391
			C49.742,12.626,49.278,12.814,48.726,12.814z"/>
		<path fill="#FFFFFF" d="M62.786,31.796c0.664-0.177,1.139-0.436,1.426-0.778c0.287-0.342,0.431-0.8,0.431-1.375l0.132-6.559
			c0-1.104-0.238-1.955-0.713-2.551c-0.476-0.596-1.155-0.895-2.04-0.895c-0.398,0-0.807,0.066-1.227,0.199s-0.813,0.293-1.177,0.48
			c-0.365,0.188-0.696,0.375-0.995,0.563c-0.299,0.188-0.525,0.348-0.68,0.48c-0.022,0.575-0.05,1.259-0.083,2.054
			c-0.033,0.795-0.066,1.59-0.099,2.385s-0.061,1.529-0.083,2.203c-0.022,0.674-0.033,1.176-0.033,1.508
			c0,0.685,0.088,1.165,0.265,1.44c0.177,0.276,0.486,0.414,0.929,0.414c0.11,0,0.232,0,0.365,0s0.254-0.011,0.365-0.033
			c0.133,0,0.276-0.011,0.431-0.033l0.066,0.133l-0.298,1.425c-0.354,0-0.708-0.012-1.062-0.033c-0.31-0.022-0.636-0.039-0.978-0.05
			c-0.343-0.012-0.669-0.017-0.979-0.017c-0.354,0-0.724,0.011-1.111,0.033c-0.387,0.021-0.735,0.044-1.044,0.066
			c-0.398,0.044-0.774,0.077-1.128,0.1l0.166-1.358c0.641-0.11,1.094-0.31,1.36-0.597c0.265-0.287,0.398-0.739,0.398-1.358V21.56
			c0-0.75-0.122-1.275-0.365-1.574c-0.244-0.298-0.664-0.447-1.26-0.447h-0.365l-0.1-0.132l0.1-1.093
			c0.574-0.088,1.138-0.188,1.691-0.298s1.05-0.221,1.493-0.332c0.508-0.11,0.995-0.221,1.459-0.331l0.199,0.265
			c-0.066,0.199-0.122,0.42-0.166,0.663c-0.044,0.199-0.083,0.431-0.116,0.696s-0.061,0.542-0.083,0.828l0.066,0.1
			c0.199-0.133,0.514-0.336,0.945-0.613c0.431-0.276,0.896-0.558,1.393-0.845c0.498-0.287,0.979-0.536,1.443-0.746
			c0.464-0.209,0.829-0.315,1.094-0.315c1.393,0,2.498,0.381,3.316,1.143c0.818,0.762,1.227,1.806,1.227,3.131
			c0,0.287-0.022,0.768-0.066,1.441c-0.044,0.674-0.1,1.408-0.166,2.203c-0.066,0.795-0.122,1.574-0.166,2.336
			c-0.044,0.762-0.066,1.386-0.066,1.872c0,1.236,0.387,1.854,1.161,1.854c0.11,0,0.232,0,0.365,0c0.133,0,0.254-0.011,0.365-0.033
			c0.133,0,0.276-0.011,0.431-0.033l0.066,0.133l-0.265,1.425c-0.332,0-0.675-0.012-1.028-0.033c-0.31-0.022-0.63-0.039-0.961-0.05
			c-0.332-0.012-0.652-0.017-0.962-0.017c-0.354,0-0.729,0.021-1.127,0.066c-0.398,0.044-0.763,0.088-1.094,0.133
			c-0.398,0.065-0.796,0.132-1.194,0.198L62.786,31.796z"/>
		<path fill="#FFFFFF" d="M76.549,28.45c-0.31,0-0.619-0.021-0.928-0.066c-0.31-0.044-0.642-0.11-0.995-0.198
			c-0.929,0.508-1.393,0.993-1.393,1.457c0,0.509,0.32,0.895,0.962,1.16c0.641,0.265,1.647,0.419,3.018,0.463
			c2.564,0.133,4.382,0.47,5.455,1.011c1.072,0.541,1.608,1.386,1.608,2.534c0,0.773-0.232,1.513-0.696,2.22
			s-1.078,1.342-1.841,1.905c-0.763,0.563-1.636,1.01-2.62,1.342c-0.984,0.331-2.006,0.496-3.068,0.496
			c-1.592,0-2.824-0.387-3.697-1.159c-0.874-0.773-1.31-1.855-1.31-3.246c0.265-0.376,0.585-0.735,0.962-1.077
			c0.375-0.343,0.74-0.657,1.094-0.944c0.398-0.331,0.807-0.651,1.227-0.96v-0.199c-0.509-0.066-0.984-0.199-1.426-0.397
			c-0.442-0.199-0.824-0.441-1.144-0.729c-0.321-0.287-0.575-0.613-0.763-0.978c-0.188-0.364-0.282-0.745-0.282-1.143
			c0.243-0.266,0.53-0.524,0.862-0.779c0.332-0.253,0.641-0.48,0.928-0.679c0.332-0.243,0.664-0.464,0.995-0.663v-0.132
			c-0.774-0.42-1.376-1.011-1.808-1.772s-0.646-1.64-0.646-2.634c0-0.795,0.166-1.545,0.498-2.252
			c0.332-0.707,0.779-1.331,1.343-1.872c0.564-0.541,1.222-0.972,1.973-1.292c0.751-0.32,1.537-0.48,2.355-0.48
			c0.641,0,1.232,0.062,1.774,0.183c0.542,0.122,1.033,0.182,1.476,0.182c0.419-0.044,0.895-0.121,1.426-0.232
			c0.531-0.11,1.028-0.221,1.492-0.332c0.553-0.132,1.105-0.276,1.658-0.431l0.1,0.133l-0.365,1.855
			c-0.288,0.022-0.586,0.056-0.896,0.1c-0.265,0.044-0.569,0.083-0.912,0.116s-0.691,0.061-1.044,0.083l-0.133,0.166
			c0.884,0.994,1.327,2.109,1.327,3.346c0,0.84-0.171,1.618-0.514,2.336c-0.343,0.718-0.807,1.341-1.393,1.872
			c-0.586,0.53-1.277,0.944-2.073,1.242S77.478,28.45,76.549,28.45z M77.345,26.992c1.017,0,1.818-0.319,2.404-0.96
			s0.879-1.524,0.879-2.65c0-1.281-0.354-2.319-1.061-3.114c-0.708-0.795-1.625-1.192-2.752-1.192c-1.018,0-1.819,0.326-2.404,0.977
			c-0.586,0.652-0.879,1.541-0.879,2.667c0,1.281,0.348,2.314,1.044,3.097C75.272,26.601,76.195,26.992,77.345,26.992z
			 M77.278,39.15c0.641,0,1.255-0.089,1.841-0.265c0.585-0.178,1.105-0.42,1.559-0.729c0.453-0.31,0.813-0.657,1.078-1.043
			c0.266-0.387,0.398-0.801,0.398-1.242c0-0.331-0.088-0.608-0.265-0.828c-0.177-0.222-0.503-0.426-0.979-0.613
			s-1.133-0.359-1.973-0.514s-1.923-0.32-3.25-0.497c-0.398,0.31-0.741,0.63-1.028,0.961c-0.265,0.287-0.503,0.607-0.713,0.961
			c-0.21,0.353-0.315,0.718-0.315,1.093c0,0.84,0.32,1.502,0.962,1.988C75.233,38.907,76.129,39.15,77.278,39.15z"/>
	</g>
</g>
<g id="storm">
	<g>
		<path fill="#FFFFFF" d="M153.668,33.154c-0.619,0-1.166-0.033-1.642-0.1s-0.891-0.144-1.243-0.231
			c-0.398-0.088-0.752-0.21-1.062-0.364l-0.1-0.232c0.021-0.177,0.055-0.452,0.1-0.828c0.044-0.375,0.088-0.789,0.133-1.242
			c0.044-0.452,0.083-0.895,0.116-1.325s0.049-0.778,0.049-1.043l1.161-0.166c0,1.458,0.237,2.484,0.713,3.081
			c0.476,0.596,1.311,0.895,2.504,0.895c0.84,0,1.547-0.188,2.122-0.563c0.575-0.375,0.862-0.839,0.862-1.392
			c0-0.265-0.055-0.519-0.165-0.762c-0.111-0.243-0.315-0.491-0.614-0.745c-0.298-0.254-0.696-0.535-1.193-0.845
			c-0.498-0.31-1.122-0.663-1.874-1.061c-1.26-0.641-2.178-1.286-2.752-1.938c-0.575-0.651-0.862-1.375-0.862-2.17
			c0-0.684,0.154-1.313,0.464-1.888c0.31-0.574,0.734-1.071,1.276-1.491c0.542-0.419,1.188-0.75,1.94-0.994
			c0.751-0.243,1.559-0.365,2.421-0.365c0.442,0,0.862,0.028,1.26,0.083c0.398,0.056,0.752,0.116,1.062,0.182
			c0.354,0.089,0.686,0.177,0.995,0.265l0.066,0.166c-0.089,0.376-0.178,0.773-0.266,1.193c-0.066,0.375-0.133,0.806-0.199,1.292
			c-0.065,0.486-0.121,1.005-0.165,1.557l-1.228,0.1c0-0.132,0.011-0.253,0.033-0.364c0-0.11,0.005-0.215,0.017-0.315
			c0.011-0.099,0.017-0.193,0.017-0.282c0-0.795-0.216-1.375-0.646-1.739c-0.432-0.365-1.122-0.547-2.073-0.547
			c-0.751,0-1.388,0.177-1.906,0.53c-0.52,0.354-0.779,0.784-0.779,1.292c0,0.53,0.221,1.027,0.663,1.491s1.183,0.96,2.222,1.491
			c0.884,0.464,1.625,0.889,2.222,1.275c0.598,0.387,1.078,0.757,1.443,1.109c0.364,0.354,0.618,0.707,0.763,1.061
			c0.144,0.354,0.215,0.74,0.215,1.159c0,0.641-0.165,1.248-0.497,1.822s-0.774,1.082-1.326,1.523
			c-0.553,0.442-1.194,0.79-1.924,1.044S154.485,33.154,153.668,33.154z"/>
		<path fill="#FFFFFF" d="M162.39,20.997c0-0.597-0.133-1.011-0.398-1.243c-0.266-0.231-0.763-0.369-1.492-0.414l-0.133-0.199
			l0.166-0.994c0.53-0.265,1.045-0.568,1.542-0.911c0.497-0.342,0.934-0.667,1.31-0.977c0.442-0.375,0.862-0.75,1.261-1.126
			l0.663,0.265c-0.045,0.177-0.078,0.387-0.1,0.629c-0.044,0.221-0.072,0.486-0.083,0.795c-0.011,0.31-0.039,0.663-0.083,1.06
			l4.875-0.099l0.1,0.099l-0.298,1.756l-4.809-0.1c-0.066,1.061-0.122,2.275-0.166,3.645c-0.045,1.37-0.066,2.915-0.066,4.637
			c0,1.127,0.193,1.922,0.58,2.386s1.056,0.695,2.007,0.695c0.265,0,0.53-0.027,0.796-0.082c0.265-0.056,0.508-0.127,0.729-0.216
			c0.243-0.088,0.485-0.188,0.729-0.298l0.331,0.861c-0.509,0.376-0.973,0.707-1.393,0.993c-0.376,0.244-0.746,0.47-1.111,0.68
			c-0.364,0.209-0.646,0.314-0.845,0.314c-1.504,0-2.565-0.304-3.185-0.911s-0.928-1.64-0.928-3.098V20.997z"/>
		<path fill="#FFFFFF" d="M176.583,33.154c-0.951,0-1.824-0.183-2.62-0.547s-1.476-0.866-2.04-1.507
			c-0.563-0.641-1-1.413-1.31-2.319c-0.31-0.905-0.464-1.898-0.464-2.981c0-1.192,0.198-2.296,0.597-3.313
			c0.397-1.016,0.939-1.905,1.625-2.667c0.685-0.762,1.497-1.358,2.438-1.789c0.939-0.431,1.95-0.646,3.034-0.646
			c0.95,0,1.818,0.183,2.604,0.547c0.784,0.364,1.459,0.867,2.022,1.507c0.564,0.641,1.006,1.414,1.327,2.319
			c0.32,0.906,0.48,1.9,0.48,2.981c0,1.193-0.199,2.297-0.597,3.313c-0.398,1.016-0.94,1.905-1.625,2.667
			c-0.686,0.762-1.498,1.358-2.438,1.789C178.677,32.939,177.666,33.154,176.583,33.154z M177.511,31.531
			c1.261,0,2.25-0.502,2.969-1.508c0.718-1.004,1.077-2.368,1.077-4.091c0-0.994-0.115-1.905-0.348-2.733
			c-0.232-0.828-0.553-1.54-0.962-2.137c-0.409-0.596-0.907-1.06-1.492-1.391c-0.586-0.332-1.222-0.497-1.907-0.497
			c-1.26,0-2.25,0.508-2.968,1.524c-0.719,1.016-1.078,2.396-1.078,4.141c0,0.994,0.116,1.9,0.349,2.716
			c0.232,0.817,0.552,1.524,0.962,2.12c0.408,0.597,0.9,1.055,1.476,1.375C176.162,31.371,176.804,31.531,177.511,31.531z"/>
		<path fill="#FFFFFF" d="M187.095,30.918c0.221-0.364,0.332-1.065,0.332-2.104v-7.288c0-0.729-0.1-1.248-0.299-1.557
			c-0.199-0.309-0.52-0.463-0.962-0.463c-0.155,0-0.32,0.022-0.497,0.066c-0.089,0.022-0.155,0.033-0.199,0.033l-0.166-0.232
			l0.1-1.027c0.509-0.088,1.022-0.188,1.542-0.298c0.52-0.11,1-0.22,1.442-0.331c0.509-0.11,1.006-0.232,1.492-0.364l0.232,0.199
			c-0.066,0.354-0.121,0.729-0.166,1.126c-0.044,0.332-0.082,0.702-0.115,1.11c-0.033,0.409-0.039,0.801-0.017,1.176l0.132,0.099
			c0.332-0.53,0.702-1.01,1.111-1.441s0.823-0.8,1.243-1.11c0.42-0.309,0.829-0.552,1.228-0.729
			c0.397-0.177,0.763-0.265,1.095-0.265c0.309,0,0.574,0.022,0.796,0.066c0.088,0.022,0.165,0.044,0.231,0.066l0.1,0.133
			l-0.232,1.623c-0.065,0.464-0.127,0.972-0.182,1.524c-0.056,0.552-0.095,1.083-0.116,1.59l-1.294,0.099
			c0-0.905-0.061-1.507-0.182-1.805c-0.122-0.298-0.36-0.447-0.713-0.447c-0.487,0-1.007,0.199-1.559,0.596
			c-0.554,0.397-1.062,0.95-1.526,1.656c-0.044,1.148-0.088,2.187-0.132,3.115c-0.022,0.396-0.039,0.794-0.05,1.192
			c-0.012,0.397-0.022,0.762-0.033,1.093c-0.012,0.331-0.022,0.618-0.033,0.861c-0.012,0.243-0.017,0.409-0.017,0.497
			c0,0.751,0.104,1.259,0.314,1.523c0.21,0.266,0.636,0.397,1.277,0.397c0.11,0,0.248,0,0.414,0s0.326-0.011,0.481-0.033
			c0.177,0,0.364-0.011,0.563-0.032l0.033,0.132l-0.299,1.458c-0.397,0-0.796-0.012-1.193-0.033c-0.354,0-0.729-0.006-1.128-0.017
			c-0.397-0.012-0.752-0.017-1.062-0.017c-0.509,0-0.973,0.005-1.393,0.017c-0.42,0.011-0.785,0.027-1.094,0.05
			c-0.377,0.021-0.708,0.044-0.995,0.066l0.166-1.325C186.432,31.498,186.873,31.282,187.095,30.918z"/>
		<path fill="#FFFFFF" d="M205.634,31.796c0.663-0.177,1.138-0.436,1.426-0.778c0.287-0.342,0.431-0.8,0.431-1.375l0.133-6.559
			c0-1.104-0.237-1.955-0.713-2.551s-1.155-0.895-2.039-0.895c-0.398,0-0.808,0.066-1.228,0.199s-0.813,0.293-1.177,0.48
			c-0.365,0.188-0.697,0.375-0.995,0.563c-0.299,0.188-0.525,0.348-0.68,0.48c-0.022,0.575-0.05,1.259-0.083,2.054
			c-0.033,0.795-0.066,1.59-0.1,2.385s-0.062,1.529-0.083,2.203c-0.022,0.674-0.033,1.176-0.033,1.508
			c0,0.685,0.088,1.165,0.266,1.44c0.177,0.276,0.485,0.414,0.929,0.414c0.11,0,0.231,0,0.364,0s0.254-0.011,0.365-0.033
			c0.132,0,0.275-0.011,0.431-0.033l0.066,0.133l-0.299,1.425c-0.354,0-0.707-0.012-1.061-0.033
			c-0.311-0.022-0.636-0.039-0.979-0.05c-0.343-0.012-0.669-0.017-0.979-0.017c-0.354,0-0.725,0.005-1.11,0.017
			c-0.388,0.011-0.735,0.017-1.045,0.017c-0.398,0.021-0.774,0.033-1.128,0.033l0.199-1.358c0.641-0.066,1.089-0.231,1.343-0.497
			c0.254-0.265,0.382-0.706,0.382-1.325V21.56c0-0.75-0.122-1.275-0.365-1.574c-0.243-0.298-0.663-0.447-1.26-0.447h-0.365
			l-0.1-0.132l0.1-1.093c0.575-0.088,1.139-0.188,1.691-0.298s1.05-0.221,1.492-0.332c0.509-0.11,0.995-0.221,1.46-0.331
			l0.198,0.265c-0.066,0.199-0.121,0.42-0.166,0.663c-0.044,0.199-0.082,0.431-0.115,0.696s-0.062,0.542-0.083,0.828l0.066,0.1
			c0.198-0.133,0.514-0.342,0.944-0.629c0.432-0.287,0.885-0.568,1.36-0.845c0.475-0.276,0.945-0.519,1.409-0.729
			c0.464-0.209,0.851-0.315,1.161-0.315c1.061,0,1.956,0.227,2.686,0.679c0.729,0.453,1.249,1.099,1.559,1.938
			c0.133-0.088,0.409-0.276,0.829-0.563c0.42-0.287,0.885-0.585,1.394-0.895c0.508-0.309,1.017-0.58,1.525-0.812
			c0.508-0.232,0.929-0.348,1.26-0.348c1.393,0,2.498,0.381,3.316,1.143c0.817,0.762,1.228,1.806,1.228,3.131
			c0,0.287-0.022,0.768-0.066,1.441c-0.045,0.674-0.1,1.408-0.166,2.203s-0.122,1.574-0.166,2.336
			c-0.045,0.762-0.066,1.386-0.066,1.872c0,0.685,0.088,1.165,0.266,1.44c0.177,0.276,0.485,0.414,0.929,0.414
			c0.11,0,0.231,0,0.364,0s0.254-0.011,0.365-0.033c0.133,0,0.276-0.011,0.431-0.033l0.066,0.133l-0.299,1.425
			c-0.354,0-0.707-0.012-1.061-0.033c-0.311-0.022-0.636-0.039-0.979-0.05c-0.343-0.012-0.669-0.017-0.979-0.017
			c-0.354,0-0.725,0.011-1.11,0.033c-0.388,0.021-0.735,0.044-1.045,0.066c-0.398,0.044-0.774,0.077-1.128,0.1l0.166-1.358
			c0.641-0.11,1.095-0.31,1.359-0.597c0.266-0.287,0.398-0.739,0.398-1.358l0.133-6.559c0-1.104-0.238-1.955-0.713-2.551
			c-0.476-0.596-1.156-0.895-2.04-0.895c-0.397,0-0.796,0.061-1.193,0.182c-0.398,0.122-0.774,0.271-1.128,0.447
			c-0.354,0.177-0.68,0.359-0.979,0.547c-0.298,0.188-0.536,0.348-0.713,0.48l-0.364,8.216c0,1.236,0.386,1.854,1.16,1.854
			c0.11,0,0.232,0,0.365,0c0.132,0,0.254-0.011,0.364-0.033c0.133,0,0.276-0.011,0.432-0.033l0.066,0.133l-0.266,1.425
			c-0.332,0-0.675-0.012-1.028-0.033c-0.31-0.022-0.63-0.039-0.962-0.05c-0.331-0.012-0.652-0.017-0.961-0.017
			c-0.354,0-0.73,0.021-1.128,0.066c-0.398,0.044-0.763,0.088-1.095,0.133c-0.397,0.065-0.796,0.132-1.193,0.198L205.634,31.796z"/>
	</g>
</g>
</svg>
